<?xml version="1.0" encoding="utf-8"?>
<!-- Generator: Adobe Illustrator 27.5.0, SVG Export Plug-In . SVG Version: 6.00 Build 0)  -->
<svg version="1.1" id="Capa_1" xmlns="http://www.w3.org/2000/svg" xmlns:xlink="http://www.w3.org/1999/xlink" x="0px" y="0px"
	 viewBox="0 0 2644 1703" style="enable-background:new 0 0 2644 1703;" xml:space="preserve">
<g>
	<path style="fill:#D7771C;" d="M2462.446,518.981l-88.583-20.259c-3.56-0.936-7.563-1.83-11.814-2.703l-0.06-0.012
		c-162.774-33.302-815.917-17.983-892.767,8.464c-65.937,22.693-161.047,32.038-259.161,0
		c-77.254-25.226-730.033-41.597-892.767-8.444v-0.02l-0.767,0.173c-3.924,0.814-7.654,1.644-10.978,2.514l-88.708,20.286
		c-1.371,0.303-2.98,0.837-4.687,1.47c-0.929,0.334-1.844,0.676-2.735,1.077c-20.928,8.911-58.459,36.215-58.459,52.081v95.387
		c0,12.996,6.579,25.107,17.477,32.184l39.166,25.42c8.997,141.01,59.157,316.148,149.711,399.736
		c133.987,123.679,490.276,128.116,666.128,31.954c45.27-19.104,82.428-43.545,106.529-73.147
		c60.338-74.113,99.093-187.526,117.028-294.613l0.016,0.087l0.048-0.431c0.853-5.121,1.635-10.207,2.394-15.292
		c4.361-22.579,15.755-64.125,43.028-88.021c4.006-0.662,8.185-1.043,12.588-1.043c71.414,0,91.383,121.955,91.383,121.955
		l0.016-0.118c17.931,107.099,56.69,220.523,117.036,294.644c110.975,136.307,497.989,163.7,685.693,60.202
		c34.195-14.32,63.892-32.051,86.96-53.346c90.559-83.588,140.717-258.725,149.711-399.735l39.166-25.42
		c10.902-7.077,17.481-19.188,17.481-32.183v-95.391C2492.521,538.445,2480.014,522.869,2462.446,518.981z"/>
	<path style="fill:#F6A654;" d="M2492.011,550.53c-0.065-0.414-0.123-0.829-0.202-1.24c-0.347-1.831-0.811-3.621-1.413-5.356
		c-0.135-0.392-0.302-0.771-0.451-1.158c-0.564-1.47-1.211-2.897-1.946-4.279c-0.193-0.361-0.358-0.737-0.561-1.092
		c-0.859-1.495-1.836-2.91-2.885-4.274c-0.364-0.474-0.742-0.937-1.127-1.394c-1.094-1.294-2.242-2.543-3.498-3.686l0,0.001
		c-4.819-4.379-10.77-7.588-17.481-9.073l-50.047-11.446l0.002-0.001l-38.538-8.812c-3.56-0.937-7.563-1.83-11.814-2.703
		l-0.06-0.012c-2.867-0.586-5.924-1.154-9.091-1.71c-0.998-0.176-2.06-0.346-3.087-0.518c-2.263-0.381-4.573-0.755-6.975-1.121
		c-1.226-0.187-2.478-0.371-3.741-0.555c-2.416-0.351-4.9-0.695-7.442-1.033c-1.244-0.165-2.473-0.331-3.746-0.494
		c-3.083-0.392-6.263-0.773-9.515-1.146c-0.787-0.091-1.535-0.185-2.332-0.275c-4.156-0.466-8.443-0.917-12.853-1.353
		c-0.783-0.078-1.607-0.151-2.398-0.228c-3.664-0.355-7.4-0.702-11.229-1.038c-1.272-0.111-2.572-0.22-3.862-0.329
		c-3.534-0.3-7.125-0.592-10.787-0.877c-1.306-0.101-2.609-0.202-3.93-0.302c-4.091-0.307-8.259-0.604-12.496-0.893
		c-0.852-0.058-1.682-0.119-2.54-0.176c-10.654-0.71-21.748-1.362-33.239-1.958c-0.584-0.03-1.179-0.059-1.765-0.088
		c-5.11-0.261-10.297-0.512-15.555-0.75c-0.967-0.044-1.939-0.088-2.911-0.131c-5.284-0.235-10.632-0.46-16.052-0.674
		c-0.583-0.022-1.159-0.047-1.743-0.069c-18.675-0.726-38.12-1.326-58.156-1.806c-0.486-0.012-0.973-0.022-1.458-0.034
		c-6.182-0.146-12.419-0.28-18.704-0.404c-0.346-0.007-0.683-0.015-1.028-0.022l-0.003,0.002
		c-237.196-4.611-544.281,6.635-623.906,23.285l0.002-0.002c-0.064,0.014-0.12,0.027-0.182,0.04
		c-1.943,0.409-3.732,0.821-5.415,1.236c-0.548,0.135-1.098,0.27-1.616,0.405c-0.59,0.155-1.149,0.31-1.7,0.466
		c-1.192,0.337-2.322,0.675-3.312,1.015c-3.65,1.256-7.42,2.454-11.246,3.623c-1.049,0.321-2.108,0.635-3.171,0.949
		c-3.312,0.979-6.68,1.925-10.112,2.833c-0.66,0.175-1.301,0.361-1.965,0.532c-3.953,1.021-7.996,1.981-12.097,2.898
		c-1.192,0.267-2.402,0.52-3.605,0.777c-3.271,0.699-6.585,1.362-9.941,1.99c-1.131,0.212-2.249,0.436-3.391,0.639
		c-4.193,0.747-8.448,1.433-12.763,2.061c-1.308,0.19-2.64,0.356-3.959,0.536c-3.318,0.449-6.666,0.861-10.049,1.235
		c-1.478,0.164-2.95,0.335-4.44,0.483c-4.401,0.439-8.844,0.824-13.346,1.129c-1.325,0.089-2.673,0.146-4.007,0.223
		c-3.479,0.203-6.982,0.364-10.516,0.482c-1.714,0.057-3.428,0.112-5.153,0.148c-4.361,0.092-8.751,0.131-13.185,0.087
		c-1.35-0.014-2.713-0.055-4.07-0.081c-3.869-0.076-7.762-0.206-11.681-0.391c-1.83-0.086-3.663-0.187-5.503-0.297
		c-3.858-0.232-7.738-0.522-11.637-0.865c-1.252-0.11-2.491-0.187-3.748-0.309c-24.568-2.379-49.904-7.074-75.528-14.45l0.002-0.001
		c-4.679-1.348-9.357-2.699-14.051-4.232c-1.1-0.359-2.35-0.715-3.681-1.071c-0.416-0.111-0.872-0.221-1.31-0.333
		c-0.986-0.249-2.019-0.497-3.116-0.745c-0.537-0.121-1.082-0.242-1.644-0.362c-1.166-0.25-2.399-0.499-3.676-0.746
		c-0.535-0.104-1.045-0.208-1.598-0.312c-1.836-0.342-3.759-0.684-5.801-1.022c-0.345-0.057-0.727-0.113-1.079-0.171
		c-1.739-0.282-3.543-0.564-5.421-0.843c-0.79-0.117-1.612-0.234-2.426-0.351c-1.546-0.222-3.131-0.443-4.763-0.662
		c-0.917-0.124-1.837-0.247-2.78-0.37c-1.749-0.228-3.559-0.453-5.398-0.678c-0.843-0.103-1.657-0.207-2.519-0.31
		c-2.62-0.311-5.321-0.621-8.109-0.928c-0.985-0.108-2.021-0.215-3.026-0.323c-1.919-0.205-3.854-0.41-5.846-0.612
		c-1.355-0.139-2.739-0.275-4.127-0.412c-1.716-0.169-3.456-0.337-5.221-0.504c-1.536-0.146-3.073-0.291-4.645-0.435
		c-1.822-0.167-3.692-0.333-5.564-0.497c-1.524-0.134-3.021-0.271-4.576-0.404c-3.104-0.266-6.274-0.528-9.501-0.789
		c-1.884-0.152-3.823-0.302-5.75-0.452c-1.671-0.131-3.339-0.26-5.04-0.39c-2.08-0.157-4.186-0.314-6.308-0.469
		c-1.591-0.117-3.198-0.232-4.814-0.348c-2.284-0.163-4.569-0.326-6.901-0.487c-1.16-0.079-2.349-0.158-3.521-0.237
		c-5.548-0.375-11.211-0.745-17.009-1.107c-0.542-0.034-1.07-0.068-1.613-0.101c-2.944-0.182-5.938-0.361-8.942-0.54
		c-1.051-0.063-2.097-0.125-3.156-0.186c-3.073-0.18-6.173-0.359-9.305-0.534c-0.895-0.05-1.798-0.1-2.698-0.15
		c-14.535-0.806-29.676-1.569-45.332-2.285c-0.634-0.029-1.266-0.058-1.902-0.087c-3.761-0.17-7.547-0.339-11.365-0.504
		c-0.441-0.019-0.886-0.038-1.327-0.057c-12.269-0.527-24.807-1.026-37.588-1.495c-0.193-0.007-0.385-0.014-0.58-0.022
		c-3.98-0.145-7.988-0.287-12.012-0.426c-0.77-0.027-1.54-0.053-2.312-0.08c-3.965-0.137-7.945-0.27-11.949-0.4
		c-0.137-0.005-0.272-0.009-0.409-0.014l-0.001,0.001c-221.166-7.176-498.708-5.24-597.107,14.805v-0.02l-0.767,0.174
		c-3.924,0.814-7.654,1.644-10.977,2.513l-88.709,20.286c-1.624,0.36-3.155,0.919-4.688,1.471c-0.928,0.334-1.843,0.676-2.734,1.076
		c-13.539,6.093-22.653,19.589-22.653,34.908v95.391c0,12.996,6.579,25.107,17.477,32.184l39.166,25.419
		c4.941,77.437,22.324,165.143,51.966,242.351l-0.001,0.001c0.014,0.036,0.029,0.072,0.042,0.109
		c1.473,3.833,2.977,7.638,4.51,11.418c0.077,0.19,0.155,0.38,0.232,0.571c1.521,3.74,3.071,7.452,4.652,11.133
		c0.073,0.17,0.147,0.338,0.221,0.508c1.603,3.725,3.232,7.421,4.897,11.08c0.007,0.018,0.017,0.035,0.024,0.053
		c3.405,7.487,6.97,14.788,10.633,21.963c5.127,10.046,10.471,19.808,16.095,29.153c0.575,0.957,1.141,1.928,1.722,2.877
		c1.343,2.194,2.713,4.343,4.085,6.493c0.854,1.34,1.704,2.687,2.57,4.009c1.253,1.915,2.526,3.796,3.802,5.671
		c1.023,1.506,2.049,3.005,3.087,4.485c1.206,1.717,2.423,3.413,3.647,5.094c1.153,1.586,2.317,3.153,3.488,4.707
		c1.168,1.549,2.341,3.087,3.527,4.604c1.28,1.638,2.576,3.244,3.875,4.843c1.128,1.386,2.253,2.775,3.396,4.131
		c1.427,1.694,2.876,3.342,4.327,4.988c1.061,1.205,2.115,2.426,3.189,3.604c1.667,1.829,3.363,3.595,5.061,5.36
		c0.898,0.932,1.781,1.895,2.687,2.809c2.625,2.648,5.281,5.23,7.978,7.72c2.973,2.744,6.091,5.409,9.278,8.037
		c0.282,0.231,0.572,0.457,0.856,0.687c3.128,2.537,6.338,5.028,9.65,7.461l0.104-0.078c15.827,11.643,33.687,22.102,53.419,31.243
		h-0.001c0.009,0.004,0.019,0.008,0.028,0.012c3.814,1.766,7.7,3.48,11.64,5.155c0.507,0.216,1.021,0.425,1.53,0.639
		c3.509,1.474,7.063,2.913,10.666,4.315c0.646,0.251,1.294,0.5,1.943,0.749c3.592,1.378,7.227,2.721,10.905,4.028
		c0.568,0.201,1.131,0.405,1.7,0.605c4.049,1.422,8.146,2.804,12.294,4.141c0.151,0.048,0.3,0.099,0.451,0.148
		c17.894,5.748,36.673,10.7,56.109,14.874c0.058,0.012,0.115,0.027,0.172,0.039l0.003-0.002
		c145.315,31.171,327.195,18.712,449.573-32.931c45.27-19.103,82.427-43.545,106.528-73.147
		c60.338-74.112,99.093-187.526,117.028-294.613l0.016,0.087l0.048-0.431c0.853-5.121,1.636-10.206,2.394-15.292
		c4.362-22.58,15.755-64.125,43.029-88.022c12.507-10.96,28.35-18.212,48.394-18.212c71.414,0,91.384,121.956,91.384,121.956
		l0.016-0.119c9.29,55.472,24.217,112.601,44.787,165.128l-0.001,0.001c0.029,0.073,0.06,0.144,0.088,0.216
		c2.354,6.007,4.778,11.951,7.281,17.826c0.055,0.128,0.112,0.254,0.167,0.383c2.478,5.802,5.02,11.539,7.643,17.195
		c0.17,0.366,0.348,0.723,0.518,1.089c2.515,5.394,5.082,10.728,7.73,15.97c0.391,0.774,0.801,1.522,1.195,2.292
		c2.462,4.816,4.955,9.591,7.531,14.262c0.712,1.292,1.461,2.534,2.181,3.815c2.314,4.109,4.635,8.207,7.04,12.19
		c1.17,1.942,2.397,3.799,3.589,5.709c2.039,3.263,4.058,6.555,6.16,9.723c1.827,2.759,3.732,5.393,5.608,8.076
		c1.562,2.232,3.084,4.529,4.679,6.707c3.534,4.826,7.145,9.521,10.841,14.062c2.875,3.532,5.992,6.968,9.234,10.351
		c0.518,0.541,1.023,1.086,1.551,1.623c3.296,3.364,6.765,6.655,10.405,9.871c0.278,0.245,0.566,0.485,0.845,0.73
		c7.834,6.85,16.429,13.36,25.708,19.529c0.019,0.012,0.036,0.026,0.053,0.038l0.001-0.001
		c16.508,10.969,35.158,20.86,55.524,29.644l-0.001,0.001c0.027,0.011,0.054,0.021,0.08,0.033c3.939,1.697,7.942,3.35,12.003,4.965
		c0.249,0.099,0.498,0.197,0.747,0.295c3.969,1.571,7.995,3.102,12.075,4.593c0.182,0.066,0.361,0.133,0.543,0.2
		c25.868,9.421,53.89,17.257,83.314,23.474c0.047,0.01,0.093,0.021,0.139,0.03l0.002-0.001
		c142.671,30.114,317.935,22.138,437.662-28.004c34.194-14.32,63.891-32.052,86.96-53.346
		c90.558-83.588,140.717-258.726,149.71-399.736l39.166-25.419c10.902-7.077,17.481-19.188,17.481-32.184v-16.971v-78.42
		C2492.521,554.427,2492.313,552.464,2492.011,550.53z M1073.683,1049.285c-45.714,56.149-146.43,90.553-256.327,101.183
		c-0.422,0.041-0.844,0.085-1.266,0.125c-3.486,0.331-6.979,0.637-10.48,0.919c-0.981,0.08-1.961,0.154-2.943,0.229
		c-3.354,0.258-6.709,0.507-10.076,0.721c-0.721,0.046-1.444,0.081-2.165,0.125c-6.185,0.376-12.385,0.674-18.597,0.9
		c-1.511,0.055-3.02,0.123-4.532,0.17c-2.571,0.079-5.143,0.131-7.717,0.183c-2.178,0.045-4.356,0.086-6.535,0.114
		c-2.339,0.029-4.676,0.048-7.015,0.056c-0.868,0.003-1.735,0.02-2.602,0.02c-0.797,0-1.591-0.032-2.389-0.034
		c-5.642-0.019-11.276-0.098-16.905-0.241c-1.184-0.03-2.369-0.046-3.552-0.081c-6.549-0.196-13.08-0.476-19.591-0.843
		c-1.219-0.068-2.432-0.159-3.649-0.234c-5.35-0.328-10.68-0.715-15.991-1.158c-1.69-0.141-3.378-0.28-5.064-0.433
		c-6.393-0.579-12.764-1.212-19.08-1.96c-0.36-0.043-0.72-0.083-1.081-0.126c-6.663-0.8-13.271-1.697-19.824-2.686
		c-0.536-0.081-1.07-0.163-1.605-0.245c-0.369-0.057-0.737-0.112-1.106-0.169c-6.091-0.946-12.128-1.973-18.102-3.085
		c-0.524-0.097-1.043-0.2-1.566-0.299c-3.496-0.66-6.915-1.414-10.365-2.131l-0.036,0.027c-0.717-0.149-1.416-0.322-2.132-0.473
		c-2.136-0.451-4.317-0.847-6.434-1.322c-0.29-0.065-0.575-0.135-0.865-0.201c-1.413-0.319-2.776-0.694-4.181-1.023
		c-1.843-0.431-3.656-0.894-5.483-1.342c-0.105-0.026-0.206-0.057-0.312-0.083c-5.533-1.364-10.987-2.804-16.367-4.325
		c-0.164-0.046-0.334-0.085-0.497-0.131c-2.757-0.781-5.527-1.548-8.241-2.371c-0.648-0.196-1.324-0.367-1.97-0.566
		c-0.445-0.137-0.897-0.267-1.34-0.405c-1.672-0.521-3.269-1.11-4.921-1.649c-1.509-0.488-3.054-0.944-4.548-1.447l0.07-0.053
		c-2.361-0.8-4.777-1.549-7.1-2.379c-0.728-0.26-1.46-0.514-2.184-0.777c-5.222-1.898-10.333-3.888-15.339-5.957
		c-0.372-0.154-0.77-0.288-1.141-0.443c-0.425-0.177-0.823-0.375-1.246-0.553c-4.941-2.085-9.775-4.249-14.483-6.504
		c-0.726-0.347-1.437-0.703-2.157-1.055c-3.693-1.802-7.255-3.694-10.79-5.603l-0.026,0.02c-0.211-0.113-0.403-0.238-0.613-0.351
		c-0.799-0.435-1.656-0.831-2.447-1.271c-0.507-0.282-0.995-0.574-1.498-0.858c-1.612-0.91-3.112-1.89-4.686-2.823
		c-1.085-0.64-2.227-1.245-3.294-1.897c-0.668-0.408-1.286-0.847-1.947-1.259c-1.179-0.737-2.445-1.419-3.601-2.169
		c-0.111-0.072-0.214-0.147-0.323-0.219c-1.792-1.167-3.509-2.379-5.243-3.58c-0.226-0.149-0.46-0.293-0.68-0.444
		c-0.119-0.083-0.228-0.171-0.345-0.254c-0.558-0.392-1.146-0.766-1.7-1.161c-1.523-1.085-3.012-2.191-4.49-3.303
		c-0.353-0.267-0.724-0.524-1.076-0.792c-0.847-0.647-1.666-1.31-2.498-1.966c-0.291-0.228-0.594-0.449-0.882-0.68
		c-0.381-0.303-0.736-0.619-1.113-0.924c-2.231-1.804-4.401-3.641-6.513-5.511c-0.315-0.279-0.675-0.533-0.987-0.814l-0.009-0.008
		c-0.403-0.363-0.808-0.729-1.207-1.094c-0.008-0.007,0.007,0.006-0.001-0.001c-0.056-0.051-0.117-0.106-0.172-0.157
		c-0.144-0.132-0.294-0.27-0.436-0.402c-0.138-0.128-0.284-0.262-0.422-0.39c-0.048-0.045-0.087-0.082-0.136-0.127
		c-0.106-0.098-0.206-0.192-0.312-0.29c-0.032-0.031-0.065-0.061-0.097-0.091c-0.122-0.114-0.257-0.241-0.378-0.355
		c-0.017-0.015-0.012-0.011-0.029-0.027c-0.582-0.547-1.143-1.14-1.721-1.697c-1.242-1.195-2.488-2.383-3.711-3.618
		c-0.315-0.318-0.627-0.644-0.941-0.965c-0.311-0.319-0.625-0.632-0.936-0.953c-0.551-0.571-1.093-1.161-1.641-1.74
		c-1.128-1.191-2.249-2.393-3.362-3.617c-0.311-0.344-0.622-0.691-0.932-1.038c-0.323-0.362-0.647-0.724-0.969-1.087
		c-0.56-0.632-1.126-1.25-1.683-1.89c-1.199-1.381-2.38-2.8-3.56-4.219c-0.037-0.045-0.075-0.09-0.113-0.135
		c-1.014-1.22-2.035-2.423-3.035-3.67c-0.231-0.29-0.456-0.595-0.688-0.886c-1.961-2.468-3.892-4.992-5.798-7.564
		c-0.621-0.838-1.232-1.69-1.846-2.538c-1.554-2.143-3.09-4.318-4.606-6.527c-0.604-0.879-1.209-1.755-1.806-2.643
		c-1.759-2.617-3.493-5.275-5.201-7.977c-0.268-0.424-0.545-0.836-0.811-1.261c-2.001-3.195-3.962-6.45-5.892-9.755
		c-0.394-0.675-0.778-1.366-1.168-2.045c-1.518-2.634-3.013-5.299-4.485-7.998c-0.52-0.953-1.035-1.91-1.549-2.87
		c-1.413-2.639-2.804-5.307-4.174-8.001c-0.413-0.81-0.831-1.612-1.239-2.427c-3.527-7.04-6.913-14.258-10.156-21.629
		c-0.4-0.91-0.791-1.828-1.187-2.743c-1.232-2.842-2.442-5.704-3.632-8.589c-0.41-0.994-0.82-1.986-1.225-2.985
		c-1.315-3.243-2.605-6.509-3.867-9.799c-0.196-0.51-0.398-1.013-0.592-1.524c-1.486-3.907-2.936-7.843-4.349-11.808
		c-0.202-0.568-0.395-1.142-0.596-1.711c-1.172-3.32-2.318-6.657-3.438-10.013c-0.282-0.843-0.563-1.686-0.842-2.531
		c-0.062-0.188-0.119-0.379-0.181-0.567c-1.011-3.079-1.999-6.171-2.968-9.275c-0.291-0.936-0.587-1.868-0.875-2.805
		c-2.457-8.003-4.77-16.077-6.941-24.199c-0.257-0.963-0.504-1.928-0.758-2.893c-0.821-3.125-1.623-6.254-2.401-9.39
		c-0.28-1.124-0.557-2.246-0.831-3.371c-0.798-3.282-1.573-6.566-2.325-9.856c-0.181-0.791-0.371-1.581-0.548-2.372
		c-0.926-4.106-1.817-8.215-2.67-12.323c-0.119-0.575-0.229-1.148-0.347-1.723c-0.713-3.475-1.4-6.948-2.061-10.419
		c-0.223-1.169-0.439-2.336-0.656-3.504c-0.557-2.999-1.094-5.995-1.613-8.987c-0.198-1.141-0.398-2.282-0.591-3.422
		c-0.619-3.677-1.213-7.349-1.774-11.01c-0.053-0.345-0.112-0.693-0.165-1.038c-0.611-4.025-1.182-8.035-1.722-12.033
		c-0.141-1.037-0.269-2.068-0.404-3.104c-0.388-2.963-0.759-5.917-1.108-8.862c-0.149-1.254-0.295-2.505-0.436-3.756
		c-0.329-2.901-0.636-5.789-0.927-8.669c-0.108-1.064-0.223-2.131-0.324-3.191c-0.372-3.859-0.715-7.698-1.018-11.509
		c-0.047-0.584-0.082-1.159-0.128-1.743c-0.249-3.237-0.474-6.455-0.673-9.653c-0.076-1.212-0.141-2.415-0.21-3.621
		c-0.15-2.627-0.282-5.237-0.396-7.832c-0.054-1.224-0.11-2.448-0.157-3.664c-0.113-2.953-0.202-5.88-0.271-8.788
		c-0.016-0.728-0.045-1.467-0.059-2.192c-0.072-3.579-0.104-7.117-0.108-10.621c-0.001-0.251-0.008-0.511-0.008-0.762
		c0.001-0.597,0.021-1.172,0.022-1.767c0.012-3.097,0.052-6.162,0.117-9.194c0.022-1.028,0.043-2.057,0.072-3.077
		c0.103-3.698,0.234-7.359,0.418-10.948c0.016-0.29,0.037-0.57,0.053-0.859c0.177-3.327,0.397-6.593,0.645-9.818
		c0.075-0.979,0.155-1.95,0.237-2.92c0.247-2.938,0.522-5.833,0.831-8.679c0.059-0.545,0.108-1.104,0.168-1.644
		c0.372-3.289,0.79-6.5,1.242-9.654c0.118-0.828,0.247-1.638,0.372-2.457c0.381-2.514,0.789-4.981,1.222-7.4
		c0.132-0.734,0.257-1.48,0.393-2.205c0.558-2.966,1.154-5.862,1.793-8.672c0.129-0.561,0.268-1.096,0.399-1.651
		c0.546-2.316,1.123-4.573,1.725-6.775c0.197-0.721,0.393-1.441,0.596-2.149c0.753-2.62,1.533-5.183,2.368-7.625
		c0.035-0.102,0.073-0.195,0.108-0.296c0.805-2.338,1.66-4.566,2.541-6.731c0.254-0.623,0.513-1.233,0.773-1.841
		c0.795-1.861,1.618-3.658,2.472-5.378c0.173-0.349,0.337-0.721,0.513-1.064c1.017-1.987,2.081-3.858,3.18-5.643
		c0.278-0.449,0.565-0.873,0.847-1.31c0.904-1.398,1.835-2.728,2.793-3.988c0.293-0.385,0.579-0.786,0.878-1.158
		c1.206-1.506,2.448-2.916,3.737-4.201c0.238-0.237,0.488-0.441,0.729-0.671c1.097-1.046,2.224-2.006,3.379-2.887
		c0.376-0.287,0.752-0.574,1.135-0.843c1.409-0.993,2.844-1.909,4.336-2.655c0.053-0.027,0.106-0.053,0.16-0.08
		c0.022-0.011,0.043-0.021,0.065-0.032c0.029-0.015,0.06-0.029,0.09-0.044c0.302-0.147,0.704-0.285,1.023-0.43
		c1.002-0.457,2.044-0.91,3.214-1.35c0.422-0.158,0.898-0.31,1.343-0.466c1.301-0.459,2.672-0.913,4.155-1.355
		c0.34-0.1,0.699-0.198,1.048-0.298c1.743-0.501,3.597-0.99,5.57-1.467c0.178-0.043,0.358-0.085,0.537-0.128
		c2.189-0.522,4.509-1.03,6.964-1.524c0.047-0.009,0.087-0.019,0.134-0.029c0,0.001,0,0.002-0.001,0.003
		c77.276-15.503,283.248-17.413,462.324-12.775c54.396,1.408,106.245,3.421,151.282,5.838l0.004-0.004
		c0.481,0.026,0.935,0.053,1.415,0.079c10.475,0.566,20.575,1.153,30.244,1.761c1.097,0.069,2.17,0.139,3.257,0.208
		c3.775,0.241,7.479,0.486,11.113,0.732c1.15,0.078,2.307,0.156,3.442,0.234c4.5,0.312,8.925,0.627,13.19,0.947
		c0.04,0.003,0.082,0.006,0.121,0.009c3.605,0.271,7.117,0.545,10.545,0.822c0.169,0.014,0.344,0.026,0.511,0.04
		c3.418,0.277,6.742,0.556,9.975,0.839c0.123,0.011,0.254,0.021,0.377,0.032c3.092,0.271,6.084,0.543,8.999,0.818
		c0.279,0.027,0.574,0.052,0.85,0.078c2.774,0.264,5.443,0.53,8.046,0.798c0.361,0.037,0.744,0.073,1.102,0.111
		c2.488,0.259,4.864,0.519,7.186,0.78c0.415,0.047,0.86,0.093,1.269,0.14c2.111,0.241,4.109,0.485,6.075,0.728
		c0.562,0.07,1.166,0.139,1.717,0.209c1.852,0.235,3.583,0.472,5.296,0.709c0.552,0.076,1.152,0.152,1.69,0.229
		c1.56,0.223,2.994,0.448,4.428,0.672c0.601,0.094,1.258,0.187,1.837,0.281c1.335,0.218,2.536,0.437,3.748,0.656
		c0.554,0.1,1.172,0.2,1.702,0.3c1.158,0.22,2.177,0.441,3.207,0.663c0.467,0.1,1.005,0.2,1.445,0.3
		c1.409,0.322,2.684,0.643,3.814,0.966c1.24,0.354,2.446,0.822,3.631,1.358c0.273,0.124,0.536,0.28,0.804,0.413
		c0.952,0.468,1.888,0.985,2.803,1.57c0.195,0.126,0.387,0.261,0.579,0.392c1.056,0.708,2.087,1.493,3.093,2.353
		c0.013,0.011,0.024,0.02,0.037,0.031c0.424,0.363,0.857,0.698,1.273,1.087c0.928,0.872,1.805,1.896,2.689,2.898
		c0.04,0.045,0.081,0.084,0.12,0.129c9.307,10.628,16.182,28.304,20.564,51.058c1.261,6.553,2.276,13.597,3.127,20.931l0.016-0.012
		c0.023,0.199,0.037,0.415,0.059,0.614c0.425,3.73,0.786,7.565,1.105,11.475c0.049,0.591,0.106,1.163,0.152,1.756
		c0.321,4.166,0.574,8.435,0.776,12.786c0.017,0.364,0.041,0.716,0.057,1.082c0.205,4.675,0.341,9.447,0.408,14.314
		c0.001,0.058,0.003,0.115,0.004,0.173c0.216,15.841-0.258,32.601-1.496,50.054
		C1174.032,837.208,1138.402,969.791,1073.683,1049.285z M2233.213,1069.75c-3.644,3.365-7.515,6.606-11.535,9.764
		c-0.351,0.275-0.685,0.559-1.038,0.833c-3.854,2.987-7.899,5.866-12.072,8.668c-0.583,0.391-1.152,0.788-1.741,1.175
		c-4.105,2.703-8.369,5.309-12.755,7.837c-0.721,0.416-1.44,0.832-2.169,1.243c-4.392,2.477-8.915,4.867-13.563,7.172
		c-0.777,0.385-1.56,0.765-2.344,1.145c-4.717,2.29-9.544,4.502-14.5,6.619c-0.74,0.317-1.495,0.622-2.24,0.934
		c-5.103,2.139-10.304,4.205-15.635,6.164c-0.545,0.2-1.102,0.389-1.649,0.587c-5.61,2.034-11.314,3.989-17.15,5.827
		c-0.073,0.022-0.148,0.043-0.221,0.066c-5.832,1.834-11.787,3.555-17.824,5.193c-0.541,0.147-1.073,0.303-1.615,0.448
		c-5.81,1.556-11.722,3.007-17.699,4.385c-0.853,0.196-1.697,0.4-2.553,0.593c-5.844,1.318-11.768,2.542-17.751,3.692
		c-0.998,0.192-1.993,0.384-2.995,0.571c-5.955,1.112-11.971,2.142-18.042,3.09c-1.025,0.16-2.05,0.315-3.077,0.469
		c-6.128,0.926-12.301,1.777-18.525,2.537c-0.939,0.115-1.882,0.219-2.823,0.33c-6.378,0.752-12.793,1.432-19.252,2.013
		c-0.676,0.06-1.356,0.11-2.033,0.169c-6.771,0.588-13.573,1.1-20.408,1.5c-0.107,0.006-0.213,0.01-0.32,0.016
		c-6.866,0.399-13.76,0.691-20.669,0.902c-0.552,0.016-1.099,0.042-1.651,0.057c-6.649,0.188-13.312,0.273-19.98,0.288
		c-0.566,0.001-1.13,0.025-1.697,0.025c-0.515,0-1.03-0.012-1.544-0.013c-2.359-0.004-4.716-0.032-7.074-0.058
		c-1.765-0.019-3.53-0.03-5.294-0.063c-2.48-0.045-4.958-0.116-7.438-0.184c-1.641-0.045-3.283-0.079-4.923-0.134
		c-2.783-0.094-5.56-0.219-8.338-0.344c-1.332-0.06-2.667-0.104-3.998-0.171c-4.104-0.205-8.203-0.441-12.293-0.712
		c-0.441-0.029-0.88-0.068-1.322-0.098c-3.648-0.248-7.29-0.515-10.923-0.814c-1.486-0.123-2.963-0.268-4.447-0.4
		c-2.574-0.228-5.149-0.452-7.713-0.706c-1.702-0.168-3.393-0.359-5.089-0.538c-2.356-0.249-4.713-0.496-7.059-0.768
		c-1.751-0.203-3.491-0.425-5.237-0.639c-2.262-0.278-4.524-0.556-6.775-0.855c-1.798-0.239-3.585-0.494-5.376-0.746
		c-2.183-0.307-4.364-0.615-6.535-0.941c-1.126-0.169-2.25-0.338-3.374-0.512c-0.694-0.108-1.38-0.228-2.073-0.337
		c-2.124-0.337-4.244-0.678-6.356-1.033c-1.82-0.306-3.632-0.623-5.442-0.943c-2.081-0.369-4.158-0.743-6.227-1.13
		c-1.814-0.339-3.622-0.686-5.424-1.039c-2.045-0.4-4.081-0.81-6.111-1.228c-1.794-0.37-3.583-0.744-5.366-1.128
		c-2.014-0.433-4.016-0.88-6.014-1.331c-1.765-0.4-3.529-0.799-5.281-1.212c-2.004-0.472-3.991-0.96-5.978-1.451
		c-1.712-0.423-3.424-0.842-5.122-1.279c-1.994-0.512-3.968-1.043-5.943-1.573c-1.666-0.448-3.337-0.89-4.989-1.352
		c-1.987-0.555-3.95-1.131-5.915-1.705c-1.6-0.467-3.21-0.926-4.796-1.405c-2.015-0.609-3.999-1.245-5.988-1.874
		c-1.501-0.475-3.017-0.937-4.504-1.424c-2.229-0.729-4.421-1.489-6.617-2.245c-1.205-0.414-2.43-0.813-3.624-1.235
		c-3.329-1.177-6.618-2.384-9.864-3.621c-0.867-0.331-1.709-0.678-2.57-1.013c-0.307-0.119-0.607-0.243-0.913-0.362
		c-2.09-0.819-4.186-1.634-6.238-2.478c-1.387-0.57-2.737-1.164-4.106-1.745c-1.789-0.76-3.586-1.516-5.345-2.295
		c-1.409-0.625-2.782-1.27-4.17-1.907c-1.676-0.769-3.357-1.536-5.003-2.323c-1.394-0.668-2.758-1.354-4.131-2.035
		c-1.585-0.786-3.171-1.571-4.725-2.374c-1.361-0.704-2.694-1.421-4.032-2.138c-1.522-0.816-3.038-1.633-4.529-2.466
		c-1.314-0.734-2.606-1.481-3.896-2.229c-1.451-0.841-2.893-1.688-4.312-2.546c-1.273-0.77-2.527-1.549-3.773-2.333
		c-0.642-0.404-1.309-0.794-1.943-1.201c-0.735-0.471-1.437-0.959-2.163-1.435c-1.213-0.796-2.412-1.598-3.597-2.407
		c-1.332-0.909-2.642-1.828-3.937-2.754c-1.145-0.817-2.282-1.637-3.399-2.468c-1.283-0.953-2.535-1.92-3.781-2.89
		c-1.068-0.833-2.135-1.666-3.176-2.511c-1.23-1-2.423-2.016-3.614-3.034c-0.992-0.847-1.991-1.692-2.956-2.552
		c-1.183-1.056-2.321-2.131-3.461-3.206c-0.903-0.849-1.819-1.692-2.694-2.553c-1.158-1.14-2.26-2.303-3.37-3.463
		c-0.354-0.371-0.727-0.734-1.077-1.107c-0.196-0.209-0.408-0.41-0.603-0.619c-0.231-0.249-0.458-0.501-0.687-0.75
		c-1.186-1.296-2.306-2.619-3.431-3.94c-0.557-0.653-1.156-1.289-1.697-1.948c-0.006-0.007-0.014-0.017-0.019-0.024
		c-0.116-0.141-0.234-0.287-0.349-0.427c-2.113-2.595-4.185-5.26-6.235-7.965c-0.648-0.854-1.283-1.731-1.925-2.596
		c-0.245-0.333-0.493-0.663-0.739-0.997c-0.177-0.243-0.359-0.481-0.537-0.724c-0.98-1.342-1.953-2.696-2.92-4.062
		c-0.706-0.998-1.407-2.005-2.106-3.017c-1.333-1.932-2.65-3.889-3.956-5.866c-0.647-0.98-1.299-1.955-1.939-2.946
		c-1.558-2.412-3.092-4.859-4.608-7.332c-0.338-0.551-0.686-1.087-1.021-1.641c-1.839-3.033-3.641-6.114-5.419-9.233
		c-0.498-0.876-0.982-1.769-1.477-2.651c-1.281-2.288-2.55-4.591-3.799-6.921c-0.604-1.128-1.202-2.267-1.799-3.406
		c-1.138-2.169-2.262-4.355-3.372-6.558c-0.582-1.154-1.165-2.307-1.739-3.47c-1.204-2.437-2.384-4.898-3.554-7.372
		c-0.425-0.9-0.861-1.79-1.281-2.695c-1.568-3.368-3.105-6.767-4.613-10.198c-0.319-0.725-0.624-1.462-0.94-2.19
		c-1.187-2.735-2.358-5.485-3.506-8.256c-0.498-1.202-0.986-2.413-1.477-3.621c-0.959-2.364-1.907-4.737-2.84-7.124
		c-0.497-1.273-0.992-2.546-1.483-3.825c-0.959-2.506-1.898-5.026-2.827-7.554c-0.403-1.097-0.813-2.187-1.211-3.287
		c-1.304-3.616-2.585-7.247-3.83-10.903c-0.078-0.229-0.152-0.461-0.229-0.691c0-0.001-0.002-0.003-0.002-0.004
		c-1.162-3.427-2.293-6.872-3.402-10.328c-0.38-1.186-0.749-2.377-1.123-3.566c-0.801-2.547-1.59-5.099-2.363-7.659
		c-0.402-1.33-0.798-2.661-1.191-3.994c-0.752-2.547-1.488-5.099-2.21-7.656c-0.348-1.226-0.698-2.45-1.039-3.678
		c-0.901-3.253-1.779-6.512-2.635-9.778c-0.13-0.497-0.268-0.992-0.398-1.49c-0.979-3.766-1.922-7.539-2.841-11.317
		c-0.269-1.104-0.523-2.21-0.787-3.315c-0.642-2.693-1.272-5.385-1.883-8.08c-0.304-1.342-0.6-2.683-0.898-4.024
		c-0.564-2.553-1.113-5.105-1.651-7.657c-0.272-1.293-0.545-2.584-0.81-3.876c-0.595-2.907-1.169-5.811-1.729-8.714
		c-0.17-0.878-0.349-1.757-0.515-2.635c-0.714-3.772-1.398-7.539-2.052-11.298c-0.154-0.887-0.296-1.77-0.446-2.656
		c-0.49-2.874-0.967-5.744-1.421-8.607c-0.205-1.293-0.4-2.583-0.599-3.873c-0.387-2.52-0.761-5.035-1.12-7.544
		c-0.187-1.301-0.372-2.601-0.551-3.897c-0.366-2.646-0.71-5.282-1.045-7.913c-0.137-1.082-0.283-2.167-0.415-3.246
		c-0.451-3.667-0.875-7.319-1.266-10.95c-0.05-0.461-0.091-0.916-0.139-1.377c-0.334-3.166-0.646-6.317-0.935-9.451
		c-0.109-1.187-0.207-2.366-0.31-3.549c-0.214-2.451-0.416-4.892-0.601-7.32c-0.096-1.251-0.188-2.497-0.275-3.742
		c-0.173-2.442-0.329-4.868-0.473-7.285c-0.066-1.112-0.138-2.227-0.198-3.332c-0.174-3.173-0.323-6.323-0.446-9.446
		c-0.011-0.297-0.03-0.599-0.04-0.895c-0.129-3.404-0.223-6.77-0.294-10.108c-0.022-1.024-0.03-2.032-0.047-3.049
		c-0.036-2.335-0.062-4.657-0.07-6.956c-0.001-0.521-0.016-1.058-0.016-1.577c0-0.496,0.016-0.97,0.017-1.464
		c0.009-3.789,0.047-7.543,0.137-11.224c0.004-0.146,0.004-0.295,0.007-0.44c0.096-3.791,0.249-7.501,0.431-11.168
		c0.044-0.872,0.089-1.739,0.136-2.603c0.201-3.625,0.431-7.204,0.717-10.695c0.019-0.225,0.042-0.441,0.061-0.666
		c0.277-3.306,0.601-6.529,0.955-9.704c0.087-0.789,0.174-1.577,0.267-2.358c0.39-3.289,0.811-6.52,1.285-9.656
		c0.06-0.4,0.129-0.782,0.191-1.18c0.438-2.822,0.916-5.569,1.422-8.257c0.127-0.674,0.25-1.353,0.382-2.019
		c0.574-2.912,1.186-5.75,1.843-8.49c0.117-0.488,0.244-0.954,0.364-1.437c0.592-2.386,1.217-4.699,1.872-6.944
		c0.16-0.545,0.313-1.1,0.476-1.636c0.761-2.506,1.562-4.919,2.405-7.233c0.172-0.47,0.353-0.916,0.527-1.378
		c0.758-2.004,1.547-3.93,2.368-5.777c0.175-0.395,0.344-0.807,0.523-1.194c0.947-2.056,1.938-3.998,2.968-5.841
		c0.229-0.412,0.468-0.802,0.701-1.202c0.938-1.609,1.906-3.136,2.91-4.565c0.171-0.242,0.333-0.507,0.506-0.744
		c1.135-1.563,2.318-2.988,3.534-4.316c0.286-0.313,0.579-0.609,0.871-0.909c1.158-1.192,2.344-2.298,3.573-3.275
		c0.122-0.097,0.237-0.213,0.36-0.308c1.327-1.025,2.706-1.885,4.116-2.653c0.34-0.186,0.683-0.358,1.028-0.528
		c1.445-0.712,2.917-1.339,4.447-1.776c0.065-0.019,0.13-0.037,0.196-0.055c0.01-0.003,0.021-0.006,0.03-0.009
		c0.065-0.018,0.129-0.036,0.194-0.054c0.009-0.002,0.017-0.005,0.027-0.007c0.068-0.019,0.136-0.038,0.204-0.057
		c0.006-0.001,0.01-0.003,0.016-0.004c0.502-0.137,1.126-0.273,1.68-0.41c0.6-0.148,1.164-0.297,1.82-0.444
		c0.686-0.154,1.465-0.307,2.212-0.46c0.794-0.163,1.555-0.326,2.418-0.488c0.679-0.128,1.441-0.254,2.162-0.382
		c1.053-0.186,2.083-0.372,3.225-0.557c0.651-0.105,1.379-0.21,2.059-0.316c1.299-0.201,2.581-0.402,3.983-0.602
		c0.055-0.008,0.103-0.016,0.159-0.024c0,0.001,0,0.002-0.001,0.003c74.656-10.621,291.099-19.319,475.791-18.235
		c49.158,0.289,96.033,1.272,137.411,3.096l0.001-0.001c0.051,0.002,0.099,0.005,0.151,0.007c4.548,0.2,9.027,0.412,13.436,0.633
		c0.135,0.007,0.271,0.013,0.405,0.02c4.31,0.217,8.548,0.445,12.717,0.681c0.267,0.015,0.535,0.03,0.801,0.045
		c4.037,0.231,8.001,0.473,11.898,0.723c0.353,0.023,0.708,0.045,1.059,0.068c3.748,0.244,7.421,0.497,11.03,0.758
		c0.486,0.035,0.977,0.07,1.461,0.106c3.444,0.253,6.813,0.517,10.124,0.787c0.591,0.048,1.188,0.096,1.774,0.144
		c3.143,0.262,6.208,0.533,9.222,0.811c0.694,0.064,1.401,0.126,2.088,0.191c2.882,0.272,5.682,0.553,8.438,0.841
		c0.735,0.076,1.485,0.151,2.211,0.228c2.596,0.278,5.109,0.566,7.585,0.857c0.823,0.097,1.666,0.191,2.474,0.29
		c2.327,0.283,4.565,0.576,6.776,0.873c0.854,0.114,1.735,0.226,2.572,0.341c2.077,0.289,4.061,0.588,6.028,0.889
		c0.875,0.134,1.782,0.264,2.635,0.4c1.848,0.295,3.594,0.601,5.337,0.908c0.86,0.152,1.761,0.298,2.596,0.453
		c1.645,0.305,3.182,0.62,4.723,0.936c0.818,0.167,1.682,0.33,2.47,0.5c1.448,0.313,2.78,0.64,4.124,0.964
		c0.764,0.183,1.581,0.362,2.31,0.55c1.281,0.329,2.436,0.671,3.611,1.011c0.668,0.193,1.397,0.381,2.032,0.578
		c1.181,0.367,2.224,0.749,3.281,1.128c0.504,0.181,1.076,0.356,1.553,0.539c1.47,0.569,2.81,1.15,4,1.745
		c1.07,0.535,2.114,1.147,3.139,1.815c0.688,0.443,1.352,0.953,2.021,1.452c0.272,0.206,0.549,0.393,0.818,0.609
		c2.639,2.086,5.127,4.607,7.459,7.542c9.715,12.224,16.76,31.547,21.159,55.766c0.524,2.885,0.97,5.909,1.419,8.928l0.01-0.008
		c0.017,0.109,0.027,0.226,0.042,0.335c0.583,3.949,1.097,8.011,1.551,12.175c0.027,0.255,0.061,0.499,0.089,0.755
		c0.464,4.341,0.858,8.79,1.184,13.345c0.008,0.108,0.019,0.213,0.026,0.322c1.668,23.594,1.515,49.867-0.513,77.626
		C2351.609,854.38,2309.048,999.748,2233.213,1069.75z"/>
	<path style="fill:#FBC47B;" d="M995.299,540.562l0.004-0.004c0.481,0.026,0.935,0.053,1.415,0.079
		c10.475,0.566,20.575,1.153,30.244,1.761c1.097,0.069,2.17,0.139,3.257,0.208c3.775,0.241,7.479,0.486,11.113,0.732
		c1.15,0.078,2.307,0.156,3.442,0.234c4.5,0.312,8.925,0.627,13.19,0.947c0.04,0.003,0.082,0.006,0.121,0.009
		c3.605,0.271,7.117,0.545,10.545,0.822c0.169,0.014,0.344,0.026,0.511,0.04c3.418,0.277,6.742,0.556,9.975,0.839
		c0.123,0.011,0.254,0.021,0.377,0.032c3.092,0.271,6.084,0.543,8.999,0.818c0.279,0.027,0.574,0.052,0.85,0.078
		c2.774,0.264,5.443,0.53,8.046,0.798c0.361,0.037,0.744,0.073,1.102,0.111c2.488,0.259,4.864,0.519,7.186,0.78
		c0.415,0.047,0.86,0.093,1.269,0.14c2.111,0.241,4.109,0.485,6.075,0.728c0.562,0.07,1.166,0.139,1.717,0.209
		c1.852,0.235,3.583,0.472,5.296,0.709c0.552,0.076,1.152,0.152,1.69,0.229c1.56,0.223,2.994,0.448,4.428,0.672
		c0.601,0.094,1.258,0.187,1.837,0.281c1.335,0.218,2.536,0.437,3.748,0.656c0.554,0.1,1.172,0.2,1.702,0.3
		c1.158,0.22,2.177,0.441,3.207,0.663c0.467,0.1,1.005,0.2,1.445,0.3c1.409,0.322,2.684,0.643,3.814,0.966
		c1.24,0.354,2.446,0.822,3.631,1.358c0.273,0.124,0.536,0.28,0.804,0.413c0.952,0.468,1.888,0.985,2.803,1.57
		c0.195,0.126,0.387,0.261,0.579,0.392c1.056,0.708,2.087,1.493,3.093,2.353c0.013,0.011,0.024,0.02,0.037,0.031
		c0.424,0.363,0.857,0.698,1.273,1.087l69.987-53.203l0.002-0.001c-4.679-1.348-9.357-2.699-14.051-4.232
		c-1.1-0.359-2.35-0.715-3.681-1.071c-0.416-0.111-0.872-0.221-1.31-0.333c-0.986-0.249-2.019-0.497-3.116-0.745
		c-0.537-0.121-1.082-0.242-1.644-0.362c-1.166-0.25-2.399-0.499-3.676-0.746c-0.535-0.104-1.045-0.208-1.598-0.312
		c-1.836-0.342-3.759-0.684-5.801-1.022c-0.345-0.057-0.727-0.113-1.079-0.171c-1.739-0.282-3.543-0.564-5.421-0.843
		c-0.79-0.117-1.612-0.234-2.426-0.351c-1.546-0.222-3.131-0.443-4.763-0.662c-0.917-0.124-1.837-0.247-2.78-0.37
		c-1.749-0.228-3.559-0.453-5.398-0.678c-0.843-0.103-1.657-0.207-2.519-0.31c-2.62-0.311-5.321-0.621-8.109-0.928
		c-0.985-0.108-2.021-0.215-3.026-0.323c-1.919-0.205-3.854-0.41-5.846-0.612c-1.355-0.139-2.739-0.275-4.127-0.412
		c-1.716-0.169-3.456-0.337-5.221-0.504c-1.536-0.146-3.073-0.291-4.645-0.435c-1.822-0.167-3.692-0.333-5.564-0.497
		c-1.524-0.134-3.021-0.271-4.576-0.404c-3.104-0.266-6.274-0.528-9.501-0.789c-1.884-0.152-3.823-0.302-5.75-0.452
		c-1.671-0.131-3.339-0.26-5.04-0.39c-2.08-0.157-4.186-0.314-6.308-0.469c-1.591-0.117-3.198-0.232-4.814-0.348
		c-2.284-0.163-4.569-0.326-6.901-0.487c-1.16-0.079-2.349-0.158-3.521-0.237c-5.548-0.375-11.211-0.745-17.009-1.107
		c-0.542-0.034-1.07-0.068-1.613-0.101c-2.944-0.182-5.938-0.361-8.942-0.54c-1.051-0.063-2.097-0.125-3.156-0.186
		c-3.073-0.18-6.173-0.359-9.305-0.534c-0.895-0.05-1.798-0.1-2.698-0.15c-14.535-0.806-29.676-1.569-45.332-2.285
		c-0.634-0.029-1.266-0.058-1.902-0.087c-3.761-0.17-7.547-0.339-11.365-0.504c-0.441-0.019-0.886-0.038-1.327-0.057
		c-12.268-0.527-24.81-1.026-37.588-1.495c-0.193-0.007-0.385-0.014-0.58-0.022c-3.98-0.145-7.988-0.287-12.012-0.426
		c-0.77-0.027-1.54-0.053-2.312-0.08c-3.965-0.137-7.945-0.27-11.949-0.4c-0.137-0.005-0.272-0.009-0.409-0.014l-0.001,0.001
		l-70.384,53.503C898.412,536.132,950.262,538.145,995.299,540.562z"/>
	<path style="fill:#FBC47B;" d="M460.969,1082.099c-0.353-0.267-0.724-0.524-1.076-0.792c-0.847-0.647-1.666-1.31-2.498-1.966
		c-0.291-0.228-0.594-0.449-0.882-0.68c-0.381-0.303-0.736-0.619-1.113-0.924c-2.231-1.804-4.401-3.641-6.513-5.511
		c-0.315-0.279-0.675-0.533-0.987-0.814l-0.009-0.008c-0.403-0.363-0.808-0.729-1.207-1.094c-0.008-0.007,0.007,0.006-0.001-0.001
		c-0.056-0.051-0.117-0.106-0.172-0.157c-0.144-0.132-0.294-0.27-0.436-0.402c-0.138-0.128-0.284-0.262-0.422-0.39
		c-0.048-0.045-0.087-0.082-0.136-0.127c-0.106-0.098-0.206-0.192-0.312-0.29c-0.032-0.031-0.065-0.061-0.097-0.091
		c-0.122-0.114-0.257-0.241-0.378-0.355c-0.017-0.015-0.012-0.011-0.029-0.027c-0.582-0.547-1.143-1.14-1.721-1.697
		c-1.242-1.195-2.488-2.383-3.711-3.618c-0.315-0.318-0.627-0.644-0.941-0.965c-0.311-0.319-0.625-0.632-0.936-0.953
		c-0.551-0.571-1.093-1.161-1.641-1.74c-1.128-1.191-2.249-2.393-3.362-3.617c-0.311-0.344-0.622-0.691-0.932-1.038
		c-0.323-0.362-0.647-0.724-0.969-1.087c-0.56-0.632-1.126-1.25-1.683-1.89c-1.199-1.381-2.38-2.8-3.56-4.219
		c-0.037-0.045-0.075-0.09-0.113-0.135c-1.014-1.22-2.035-2.423-3.035-3.67c-0.231-0.29-0.456-0.595-0.688-0.886
		c-1.961-2.468-3.892-4.992-5.798-7.564c-0.621-0.838-1.232-1.69-1.846-2.538c-1.554-2.143-3.09-4.318-4.606-6.527
		c-0.604-0.879-1.209-1.755-1.806-2.643c-1.759-2.617-3.493-5.275-5.201-7.977c-0.268-0.424-0.545-0.836-0.811-1.261
		c-2.001-3.195-3.962-6.45-5.892-9.755c-0.394-0.675-0.778-1.366-1.168-2.045c-1.518-2.634-3.013-5.299-4.485-7.998
		c-0.52-0.953-1.035-1.91-1.549-2.87c-1.413-2.639-2.804-5.307-4.174-8.001c-0.413-0.81-0.831-1.612-1.239-2.427
		c-3.527-7.04-6.913-14.258-10.156-21.629c-0.4-0.91-0.791-1.828-1.187-2.743c-1.232-2.842-2.442-5.704-3.632-8.589
		c-0.41-0.994-0.82-1.986-1.225-2.985c-1.315-3.243-2.605-6.509-3.867-9.799c-0.196-0.51-0.398-1.013-0.592-1.524
		c-1.486-3.907-2.936-7.843-4.349-11.808c-0.202-0.568-0.395-1.142-0.596-1.711c-1.172-3.32-2.318-6.657-3.438-10.013
		c-0.282-0.843-0.563-1.686-0.842-2.531l-57.573,43.765l-0.001,0.001c0.014,0.036,0.029,0.072,0.042,0.109
		c1.473,3.833,2.977,7.638,4.51,11.418c0.077,0.19,0.155,0.38,0.232,0.571c1.521,3.74,3.071,7.452,4.652,11.133
		c0.073,0.17,0.147,0.338,0.221,0.508c1.603,3.725,3.232,7.421,4.897,11.08c0.007,0.018,0.017,0.035,0.024,0.053
		c3.405,7.487,6.97,14.788,10.633,21.963c5.127,10.045,10.474,19.806,16.095,29.153c0.575,0.957,1.141,1.928,1.722,2.877
		c1.343,2.194,2.713,4.343,4.085,6.493c0.854,1.34,1.704,2.687,2.57,4.009c1.253,1.915,2.526,3.796,3.802,5.671
		c1.023,1.506,2.049,3.005,3.087,4.485c1.206,1.717,2.423,3.413,3.647,5.094c1.153,1.586,2.317,3.153,3.488,4.707
		c1.168,1.549,2.341,3.087,3.527,4.604c1.28,1.638,2.576,3.244,3.875,4.843c1.128,1.386,2.253,2.775,3.396,4.131
		c1.427,1.694,2.876,3.342,4.327,4.988c1.061,1.205,2.115,2.426,3.189,3.604c1.667,1.829,3.363,3.595,5.061,5.36
		c0.898,0.932,1.781,1.895,2.687,2.809c2.625,2.648,5.281,5.23,7.978,7.72c2.973,2.744,6.091,5.409,9.278,8.037
		c0.282,0.231,0.572,0.457,0.856,0.687c3.128,2.537,6.338,5.028,9.65,7.461l0.104-0.078l52.449-39.87
		C463.935,1084.316,462.447,1083.211,460.969,1082.099z"/>
	<path style="fill:#FBC47B;" d="M1177.497,615.991c1.261,6.553,2.276,13.597,3.127,20.931l0.016-0.012
		c0.023,0.199,0.037,0.415,0.059,0.614c0.425,3.73,0.786,7.565,1.105,11.475c0.049,0.591,0.106,1.163,0.152,1.756
		c0.321,4.166,0.574,8.435,0.776,12.786c0.017,0.364,0.041,0.716,0.057,1.082c0.205,4.675,0.341,9.447,0.408,14.314
		c0.001,0.058,0.003,0.115,0.004,0.173c0.216,15.841-0.258,32.601-1.496,50.054l299.741-227.853l0.002-0.002
		c-0.064,0.014-0.12,0.027-0.182,0.04c-1.943,0.409-3.732,0.821-5.415,1.236c-0.548,0.135-1.098,0.27-1.616,0.405
		c-0.59,0.155-1.149,0.31-1.7,0.466c-1.192,0.337-2.322,0.675-3.312,1.015c-3.65,1.256-7.42,2.454-11.246,3.623
		c-1.049,0.321-2.108,0.635-3.171,0.949c-3.312,0.979-6.68,1.925-10.112,2.833c-0.66,0.175-1.301,0.361-1.965,0.532
		c-3.953,1.021-7.996,1.981-12.097,2.898c-1.192,0.267-2.402,0.52-3.605,0.777c-3.271,0.699-6.585,1.362-9.941,1.99
		c-1.131,0.212-2.249,0.436-3.391,0.639c-4.193,0.747-8.448,1.433-12.763,2.061c-1.308,0.19-2.64,0.356-3.959,0.536
		c-3.318,0.449-6.666,0.861-10.049,1.235c-1.478,0.164-2.95,0.335-4.44,0.483c-4.401,0.439-8.844,0.824-13.346,1.129
		c-1.325,0.089-2.673,0.146-4.007,0.223c-3.479,0.203-6.982,0.364-10.516,0.482c-1.714,0.057-3.428,0.112-5.153,0.148
		c-4.361,0.092-8.751,0.131-13.185,0.087c-1.35-0.014-2.713-0.055-4.07-0.081c-3.869-0.076-7.762-0.206-11.681-0.391
		c-1.83-0.086-3.663-0.187-5.503-0.297c-3.858-0.232-7.738-0.522-11.637-0.865c-1.252-0.11-2.491-0.187-3.748-0.309
		c-0.003,0-0.008-0.001-0.011-0.001L1177.497,615.991z"/>
	<path style="fill:#FBC47B;" d="M613.922,1142.436c-3.496-0.66-6.915-1.414-10.365-2.131l-0.036,0.027
		c-0.717-0.149-1.416-0.322-2.132-0.473c-2.136-0.451-4.317-0.847-6.434-1.322c-0.29-0.065-0.575-0.135-0.865-0.201
		c-1.413-0.319-2.776-0.694-4.181-1.023c-1.843-0.431-3.656-0.894-5.483-1.342c-0.105-0.026-0.206-0.057-0.312-0.083
		c-5.533-1.364-10.987-2.804-16.367-4.325c-0.164-0.046-0.334-0.085-0.497-0.131c-2.757-0.781-5.527-1.548-8.241-2.371
		c-0.648-0.196-1.324-0.367-1.97-0.566c-0.445-0.137-0.897-0.267-1.34-0.405c-1.672-0.521-3.269-1.11-4.921-1.649
		c-1.509-0.488-3.054-0.944-4.548-1.447l0.07-0.053c-2.361-0.8-4.777-1.549-7.1-2.379c-0.728-0.26-1.46-0.514-2.184-0.777
		c-5.222-1.898-10.333-3.888-15.339-5.957c-0.372-0.154-0.77-0.288-1.141-0.443l-54.108,41.131h-0.001
		c0.009,0.004,0.019,0.008,0.028,0.012c3.814,1.766,7.7,3.48,11.64,5.155c0.507,0.216,1.021,0.425,1.53,0.639
		c3.509,1.474,7.063,2.913,10.666,4.315c0.646,0.251,1.294,0.5,1.943,0.749c3.592,1.378,7.227,2.721,10.905,4.028
		c0.568,0.201,1.131,0.405,1.7,0.605c4.049,1.422,8.146,2.804,12.294,4.141c0.151,0.048,0.3,0.099,0.451,0.148
		c17.893,5.746,36.673,10.7,56.109,14.874c0.058,0.012,0.115,0.027,0.172,0.039l0.003-0.002l59.721-45.398
		c-6.091-0.946-12.128-1.973-18.102-3.085C614.964,1142.639,614.445,1142.535,613.922,1142.436z"/>
	<path style="fill:#FBC47B;" d="M2170.971,535.695L2170.971,535.695c0.052,0.002,0.1,0.004,0.152,0.007
		c4.548,0.2,9.027,0.412,13.436,0.633c0.135,0.007,0.271,0.013,0.405,0.02c4.31,0.217,8.548,0.445,12.717,0.681
		c0.267,0.015,0.535,0.03,0.801,0.045c4.037,0.231,8.001,0.473,11.898,0.723c0.353,0.023,0.708,0.045,1.059,0.068
		c3.748,0.244,7.421,0.497,11.03,0.758c0.486,0.035,0.977,0.07,1.461,0.106c3.444,0.253,6.813,0.517,10.124,0.787
		c0.591,0.048,1.188,0.096,1.774,0.144c3.143,0.262,6.208,0.533,9.222,0.811c0.694,0.064,1.401,0.126,2.088,0.191
		c2.882,0.272,5.682,0.553,8.438,0.841c0.735,0.076,1.485,0.151,2.211,0.228c2.596,0.278,5.109,0.566,7.585,0.857
		c0.823,0.097,1.666,0.191,2.474,0.29c2.327,0.283,4.565,0.576,6.776,0.873c0.854,0.114,1.735,0.226,2.572,0.341
		c2.077,0.289,4.061,0.588,6.028,0.889c0.875,0.134,1.782,0.264,2.635,0.4c1.848,0.295,3.594,0.601,5.337,0.908
		c0.86,0.152,1.761,0.298,2.596,0.453c1.645,0.305,3.182,0.62,4.723,0.936c0.818,0.167,1.682,0.33,2.47,0.5
		c1.448,0.313,2.78,0.64,4.124,0.964c0.764,0.183,1.581,0.362,2.31,0.55c1.281,0.329,2.436,0.671,3.611,1.011
		c0.668,0.193,1.397,0.381,2.032,0.578c1.181,0.367,2.224,0.749,3.281,1.128c0.504,0.181,1.076,0.356,1.553,0.539
		c1.47,0.569,2.81,1.15,4,1.745c1.07,0.535,2.114,1.147,3.139,1.815c0.688,0.443,1.352,0.953,2.021,1.452
		c0.272,0.206,0.549,0.393,0.818,0.609c2.639,2.086,5.127,4.607,7.459,7.542l77.067-58.583l0.002-0.001l-38.538-8.812
		c-3.56-0.937-7.563-1.83-11.814-2.703l-0.06-0.012c-2.867-0.586-5.924-1.154-9.091-1.71c-0.998-0.176-2.06-0.346-3.087-0.518
		c-2.263-0.381-4.573-0.755-6.975-1.121c-1.226-0.187-2.478-0.371-3.741-0.555c-2.416-0.351-4.9-0.695-7.442-1.033
		c-1.244-0.165-2.473-0.331-3.746-0.494c-3.083-0.392-6.263-0.773-9.515-1.146c-0.787-0.091-1.535-0.185-2.332-0.275
		c-4.156-0.466-8.443-0.917-12.853-1.353c-0.783-0.078-1.607-0.151-2.398-0.228c-3.664-0.355-7.4-0.702-11.229-1.038
		c-1.272-0.111-2.572-0.22-3.862-0.329c-3.534-0.3-7.125-0.592-10.787-0.877c-1.306-0.101-2.609-0.202-3.93-0.302
		c-4.091-0.307-8.259-0.604-12.496-0.893c-0.852-0.058-1.682-0.119-2.54-0.176c-10.654-0.71-21.748-1.362-33.239-1.958
		c-0.584-0.03-1.179-0.059-1.765-0.088c-5.11-0.261-10.297-0.512-15.555-0.75c-0.967-0.044-1.939-0.088-2.911-0.131
		c-5.284-0.235-10.632-0.46-16.052-0.674c-0.583-0.022-1.159-0.047-1.743-0.069c-18.675-0.726-38.122-1.326-58.156-1.806
		c-0.486-0.012-0.973-0.022-1.458-0.034c-6.182-0.146-12.419-0.28-18.704-0.404c-0.346-0.007-0.683-0.015-1.028-0.022l-0.003,0.002
		l-71.792,54.574C2082.717,532.888,2129.593,533.871,2170.971,535.695z"/>
	<path style="fill:#FBC47B;" d="M1647.451,1085.939c-1.213-0.796-2.412-1.598-3.597-2.407c-1.332-0.909-2.642-1.828-3.937-2.754
		c-1.145-0.817-2.282-1.637-3.399-2.468c-1.283-0.953-2.535-1.92-3.781-2.89c-1.068-0.833-2.135-1.666-3.176-2.511
		c-1.23-1-2.423-2.016-3.614-3.034c-0.992-0.847-1.991-1.692-2.956-2.552c-1.183-1.056-2.321-2.131-3.461-3.206
		c-0.903-0.849-1.819-1.692-2.694-2.553c-1.158-1.14-2.26-2.303-3.37-3.463c-0.354-0.371-0.727-0.734-1.077-1.107
		c-0.196-0.209-0.408-0.41-0.603-0.619c-0.231-0.249-0.458-0.501-0.687-0.75c-1.186-1.296-2.306-2.619-3.431-3.94
		c-0.557-0.653-1.156-1.289-1.697-1.948c-0.006-0.007-0.014-0.017-0.019-0.024c-0.116-0.141-0.234-0.287-0.349-0.427
		c-2.113-2.595-4.185-5.26-6.235-7.965c-0.648-0.854-1.283-1.731-1.925-2.596c-0.245-0.333-0.493-0.663-0.739-0.997
		c-0.177-0.243-0.359-0.481-0.537-0.724c-0.98-1.342-1.953-2.696-2.92-4.062c-0.706-0.998-1.407-2.005-2.106-3.017
		c-1.333-1.932-2.65-3.889-3.956-5.866c-0.647-0.98-1.299-1.955-1.939-2.946c-1.558-2.412-3.092-4.859-4.608-7.332
		c-0.338-0.551-0.686-1.087-1.021-1.641c-1.839-3.033-3.641-6.114-5.419-9.233c-0.498-0.876-0.982-1.769-1.477-2.651
		c-1.281-2.288-2.55-4.591-3.799-6.921c-0.604-1.128-1.202-2.267-1.799-3.406c-1.138-2.169-2.262-4.355-3.372-6.558
		c-0.582-1.154-1.165-2.307-1.739-3.47c-1.204-2.437-2.384-4.898-3.554-7.372c-0.425-0.9-0.861-1.79-1.281-2.695
		c-1.568-3.368-3.105-6.767-4.613-10.198c-0.319-0.725-0.624-1.462-0.94-2.19c-1.187-2.735-2.358-5.485-3.506-8.256
		c-0.498-1.202-0.986-2.413-1.477-3.621c-0.959-2.364-1.907-4.737-2.84-7.124c-0.497-1.273-0.992-2.546-1.483-3.825
		c-0.959-2.506-1.898-5.026-2.827-7.554c-0.403-1.097-0.813-2.187-1.211-3.287c-1.304-3.616-2.585-7.247-3.83-10.903
		c-0.078-0.229-0.152-0.461-0.229-0.691c0-0.001-0.002-0.003-0.002-0.004l-57.151,43.445l-0.001,0.001
		c0.029,0.073,0.06,0.144,0.088,0.216c2.354,6.007,4.778,11.951,7.281,17.826c0.055,0.128,0.112,0.254,0.167,0.383
		c2.478,5.802,5.02,11.539,7.643,17.195c0.17,0.366,0.348,0.723,0.518,1.089c2.515,5.394,5.082,10.728,7.73,15.97
		c0.391,0.774,0.801,1.522,1.195,2.292c2.462,4.816,4.955,9.591,7.531,14.262c0.712,1.292,1.461,2.534,2.181,3.815
		c2.314,4.109,4.635,8.207,7.04,12.19c1.17,1.942,2.397,3.799,3.589,5.709c2.039,3.263,4.058,6.555,6.16,9.723
		c1.827,2.759,3.732,5.393,5.608,8.076c1.562,2.232,3.084,4.529,4.679,6.707c3.534,4.826,7.145,9.521,10.841,14.062
		c2.875,3.532,5.992,6.968,9.234,10.351c0.518,0.541,1.023,1.086,1.551,1.623c3.296,3.364,6.765,6.655,10.405,9.871
		c0.278,0.245,0.566,0.485,0.845,0.73c7.845,6.844,16.43,13.359,25.708,19.529c0.019,0.012,0.036,0.026,0.053,0.038l0.001-0.001
		l52.5-39.907C1648.879,1086.902,1648.177,1086.415,1647.451,1085.939z"/>
	<path style="fill:#FBC47B;" d="M2492.011,550.53c-0.065-0.414-0.123-0.829-0.202-1.24c-0.347-1.831-0.811-3.621-1.413-5.356
		c-0.135-0.392-0.302-0.771-0.451-1.158c-0.564-1.47-1.211-2.897-1.946-4.279c-0.193-0.361-0.358-0.737-0.561-1.092
		c-0.859-1.495-1.836-2.91-2.885-4.274c-0.364-0.474-0.742-0.937-1.127-1.394c-1.094-1.294-2.242-2.543-3.498-3.686l0,0.001
		l-123.435,93.831c0.524,2.885,0.97,5.909,1.419,8.928l0.01-0.008c0.017,0.109,0.027,0.226,0.042,0.335
		c0.583,3.949,1.097,8.011,1.551,12.175c0.027,0.255,0.061,0.499,0.089,0.755c0.464,4.341,0.858,8.79,1.184,13.345
		c0.008,0.108,0.019,0.213,0.026,0.322c1.668,23.594,1.515,49.867-0.513,77.626l132.22-100.508v-78.42
		C2492.521,554.427,2492.313,552.464,2492.011,550.53z"/>
	<path style="fill:#FBC47B;" d="M1812.507,1143.995c-1.82-0.306-3.632-0.623-5.442-0.943c-2.081-0.369-4.158-0.743-6.227-1.13
		c-1.814-0.339-3.622-0.686-5.424-1.039c-2.045-0.4-4.081-0.81-6.111-1.228c-1.794-0.37-3.583-0.744-5.366-1.128
		c-2.014-0.433-4.016-0.88-6.014-1.331c-1.765-0.4-3.529-0.799-5.281-1.212c-2.004-0.472-3.991-0.96-5.978-1.451
		c-1.712-0.423-3.424-0.842-5.122-1.279c-1.994-0.512-3.968-1.043-5.943-1.573c-1.666-0.448-3.337-0.89-4.989-1.352
		c-1.987-0.555-3.95-1.131-5.915-1.705c-1.6-0.467-3.21-0.926-4.796-1.405c-2.015-0.609-3.999-1.245-5.988-1.874
		c-1.501-0.475-3.017-0.937-4.504-1.424c-2.229-0.729-4.421-1.489-6.617-2.245c-1.205-0.414-2.43-0.813-3.624-1.235
		c-3.329-1.177-6.618-2.384-9.864-3.621c-0.867-0.331-1.709-0.678-2.57-1.013l-54.092,41.118l-0.001,0.001
		c0.027,0.011,0.054,0.021,0.08,0.033c3.939,1.697,7.942,3.35,12.003,4.965c0.249,0.099,0.498,0.197,0.747,0.295
		c3.969,1.571,7.995,3.102,12.075,4.593c0.182,0.066,0.361,0.133,0.543,0.2c25.865,9.42,53.891,17.255,83.314,23.474
		c0.047,0.01,0.093,0.021,0.139,0.03l0.002-0.001l59.395-45.15c-0.694-0.108-1.38-0.228-2.073-0.337
		C1816.739,1144.691,1814.618,1144.351,1812.507,1143.995z"/>
	<path style="fill:#DF6B31;" d="M222.574,588.15c3.092,0,5.938-0.999,8.281-2.663c-1.057,0.247-2.144,0.41-3.275,0.41
		c-7.925,0-14.35-6.425-14.35-14.35c0-4.833,2.407-9.087,6.069-11.688c-6.34,1.487-11.075,7.147-11.075,13.94
		C208.225,581.725,214.649,588.15,222.574,588.15z"/>
	<path style="fill:#DF6B31;" d="M222.574,649.721c3.092,0,5.938-0.999,8.281-2.662c-1.057,0.247-2.144,0.41-3.275,0.41
		c-7.925,0-14.35-6.425-14.35-14.35c0-4.833,2.407-9.087,6.069-11.688c-6.34,1.487-11.075,7.147-11.075,13.94
		C208.225,643.296,214.649,649.721,222.574,649.721z"/>
	<path style="fill:#454F56;" d="M213.231,571.548c0,7.925,6.424,14.35,14.35,14.35c1.132,0,2.218-0.163,3.275-0.41
		c6.34-1.487,11.074-7.146,11.074-13.939c0-7.925-6.424-14.35-14.35-14.35c-3.092,0-5.938,0.999-8.281,2.662
		C215.637,562.461,213.231,566.715,213.231,571.548z"/>
	<path style="fill:#454F56;" d="M213.231,633.119c0,7.925,6.424,14.35,14.35,14.35c1.132,0,2.218-0.163,3.275-0.41
		c6.34-1.487,11.074-7.147,11.074-13.94c0-7.925-6.424-14.35-14.35-14.35c-3.092,0-5.938,0.999-8.281,2.662
		C215.637,624.032,213.231,628.286,213.231,633.119z"/>
	<path style="fill:#DF6B31;" d="M2459.987,559.86c3.662,2.601,6.069,6.854,6.069,11.688c0,7.925-6.425,14.35-14.35,14.35
		c-1.132,0-2.219-0.163-3.275-0.41c2.342,1.664,5.188,2.663,8.279,2.663c7.926,0,14.351-6.425,14.351-14.35
		C2471.063,567.007,2466.327,561.348,2459.987,559.86z"/>
	<path style="fill:#DF6B31;" d="M2459.987,621.431c3.662,2.601,6.069,6.854,6.069,11.688c0,7.925-6.425,14.35-14.35,14.35
		c-1.132,0-2.219-0.163-3.275-0.41c2.342,1.663,5.188,2.662,8.279,2.662c7.926,0,14.351-6.425,14.351-14.35
		C2471.063,628.578,2466.327,622.919,2459.987,621.431z"/>
	<path style="fill:#454F56;" d="M2466.056,571.548c0-4.833-2.407-9.087-6.069-11.688c-2.344-1.663-5.189-2.662-8.281-2.662
		c-7.926,0-14.35,6.424-14.35,14.35c0,6.793,4.735,12.453,11.076,13.939c1.056,0.247,2.143,0.41,3.275,0.41
		C2459.632,585.898,2466.056,579.473,2466.056,571.548z"/>
	<path style="fill:#454F56;" d="M2466.056,633.119c0-4.833-2.407-9.087-6.069-11.688c-2.344-1.663-5.189-2.662-8.281-2.662
		c-7.926,0-14.35,6.424-14.35,14.35c0,6.793,4.735,12.453,11.076,13.94c1.056,0.247,2.143,0.41,3.275,0.41
		C2459.632,647.468,2466.056,641.044,2466.056,633.119z"/>
	<g>
		<path style="fill:#383B4E;" d="M2361.853,687.196l0.074-0.057c-0.017-2.336-0.106-4.584-0.154-6.881
			c-0.044-2.02-0.068-4.06-0.136-6.049c-0.188-5.61-0.445-11.128-0.823-16.473c-0.007-0.109-0.018-0.214-0.026-0.322
			c-0.326-4.553-0.721-9.005-1.184-13.345c-0.028-0.256-0.062-0.5-0.089-0.755c-0.455-4.162-0.968-8.226-1.551-12.175
			c-0.015-0.109-0.026-0.226-0.042-0.335l-0.01,0.008c-0.449-3.02-0.895-6.044-1.419-8.928
			c-4.399-24.219-11.445-43.542-21.159-55.766c-2.332-2.935-4.82-5.456-7.459-7.542c-0.269-0.216-0.547-0.402-0.818-0.609
			c-0.669-0.499-1.333-1.008-2.021-1.452c-1.025-0.668-2.069-1.279-3.139-1.815c-1.191-0.596-2.531-1.176-4-1.745
			c-0.477-0.183-1.049-0.358-1.553-0.539c-1.058-0.379-2.101-0.76-3.281-1.128c-0.635-0.197-1.364-0.385-2.032-0.578
			c-1.175-0.34-2.33-0.681-3.611-1.011c-0.729-0.187-1.546-0.366-2.31-0.55c-1.345-0.324-2.676-0.65-4.124-0.964
			c-0.788-0.17-1.652-0.333-2.47-0.5c-1.541-0.315-3.078-0.631-4.723-0.936c-0.835-0.155-1.735-0.301-2.596-0.453
			c-1.743-0.307-3.489-0.612-5.337-0.908c-0.853-0.136-1.76-0.266-2.635-0.4c-1.967-0.301-3.951-0.6-6.028-0.889
			c-0.837-0.116-1.718-0.228-2.572-0.341c-2.211-0.297-4.449-0.59-6.776-0.873c-0.808-0.099-1.651-0.193-2.474-0.29
			c-2.476-0.292-4.989-0.579-7.585-0.857c-0.726-0.077-1.476-0.152-2.211-0.228c-2.755-0.287-5.556-0.569-8.438-0.841
			c-0.688-0.065-1.395-0.128-2.088-0.191c-3.015-0.278-6.079-0.549-9.222-0.811c-0.586-0.048-1.184-0.096-1.774-0.144
			c-3.311-0.271-6.68-0.534-10.124-0.787c-0.484-0.036-0.975-0.07-1.461-0.106c-3.609-0.262-7.282-0.515-11.03-0.758
			c-0.351-0.022-0.706-0.045-1.059-0.068c-3.896-0.25-7.861-0.492-11.898-0.723c-0.266-0.016-0.533-0.03-0.801-0.045
			c-4.169-0.237-8.407-0.464-12.717-0.681c-0.135-0.007-0.27-0.013-0.405-0.02c-4.41-0.221-8.889-0.433-13.436-0.633
			c-0.052-0.003-0.1-0.005-0.151-0.007l-0.001,0.001c-41.378-1.824-88.254-2.807-137.411-3.096
			c-184.692-1.084-401.135,7.615-475.791,18.235c0.001-0.001,0.001-0.002,0.001-0.003c-0.056,0.008-0.103,0.016-0.159,0.024
			c-1.402,0.2-2.685,0.401-3.983,0.602c-0.68,0.106-1.408,0.211-2.059,0.316c-1.141,0.185-2.172,0.371-3.225,0.557
			c-0.721,0.128-1.483,0.254-2.162,0.382c-0.864,0.162-1.625,0.325-2.418,0.488c-0.747,0.154-1.526,0.307-2.212,0.46
			c-0.656,0.147-1.22,0.296-1.82,0.444c-0.554,0.137-1.177,0.272-1.68,0.41c-0.005,0.001-0.01,0.003-0.016,0.004
			c-0.068,0.019-0.136,0.038-0.204,0.057c-0.009,0.002-0.018,0.005-0.027,0.007c-0.065,0.018-0.129,0.036-0.194,0.054
			c-0.01,0.003-0.021,0.006-0.03,0.009c-0.066,0.018-0.132,0.037-0.196,0.055c-1.529,0.437-3.001,1.064-4.447,1.776
			c-0.344,0.17-0.688,0.342-1.028,0.528c-1.41,0.768-2.79,1.628-4.116,2.653c-0.123,0.094-0.238,0.211-0.36,0.308
			c-1.229,0.977-2.415,2.083-3.573,3.275c-0.292,0.3-0.584,0.596-0.871,0.909c-1.216,1.329-2.399,2.753-3.534,4.316
			c-0.173,0.238-0.335,0.502-0.506,0.744c-1.004,1.429-1.973,2.956-2.91,4.565c-0.234,0.4-0.472,0.791-0.701,1.202
			c-1.03,1.843-2.021,3.785-2.968,5.841c-0.179,0.387-0.347,0.799-0.523,1.194c-0.821,1.846-1.61,3.773-2.368,5.777
			c-0.174,0.461-0.355,0.908-0.527,1.378c-0.842,2.313-1.644,4.727-2.405,7.233c-0.164,0.536-0.317,1.091-0.476,1.636
			c-0.655,2.245-1.28,4.558-1.872,6.944c-0.12,0.483-0.247,0.949-0.364,1.437c-0.657,2.74-1.269,5.578-1.843,8.49
			c-0.131,0.665-0.255,1.345-0.382,2.019c-0.507,2.688-0.984,5.435-1.422,8.257c-0.062,0.398-0.13,0.78-0.191,1.18
			c-0.474,3.136-0.895,6.366-1.285,9.656c-0.093,0.781-0.18,1.569-0.267,2.358c-0.354,3.175-0.678,6.399-0.955,9.704
			c-0.019,0.224-0.042,0.441-0.061,0.666c-0.287,3.49-0.516,7.07-0.717,10.695c-0.047,0.864-0.093,1.731-0.136,2.603
			c-0.181,3.667-0.334,7.377-0.431,11.168c-0.004,0.146-0.004,0.295-0.007,0.44c-0.091,3.681-0.128,7.434-0.137,11.224
			c-0.001,0.494-0.017,0.968-0.017,1.464c0,0.519,0.014,1.056,0.016,1.577c0.007,2.299,0.033,4.621,0.07,6.956
			c0.017,1.017,0.025,2.025,0.047,3.049c0.07,3.339,0.164,6.705,0.294,10.108c0.01,0.296,0.029,0.598,0.04,0.895
			c0.124,3.123,0.273,6.272,0.446,9.446c0.06,1.105,0.132,2.221,0.198,3.332c0.144,2.417,0.3,4.843,0.473,7.285
			c0.088,1.245,0.18,2.491,0.275,3.742c0.185,2.428,0.387,4.869,0.601,7.32c0.103,1.183,0.2,2.361,0.31,3.549
			c0.289,3.134,0.601,6.285,0.935,9.451c0.048,0.461,0.089,0.916,0.139,1.377c0.391,3.63,0.815,7.283,1.266,10.95
			c0.132,1.079,0.278,2.164,0.415,3.246c0.335,2.631,0.68,5.267,1.045,7.913c0.179,1.297,0.364,2.597,0.551,3.897
			c0.359,2.509,0.734,5.023,1.12,7.544c0.199,1.291,0.395,2.58,0.599,3.873c0.454,2.863,0.931,5.733,1.421,8.607
			c0.15,0.886,0.292,1.769,0.446,2.656c0.655,3.759,1.339,7.526,2.052,11.298c0.165,0.878,0.344,1.756,0.515,2.635
			c0.56,2.903,1.134,5.807,1.729,8.714c0.265,1.293,0.538,2.584,0.81,3.876c0.538,2.552,1.087,5.104,1.651,7.657
			c0.297,1.342,0.594,2.683,0.898,4.024c0.611,2.695,1.242,5.387,1.883,8.08c0.264,1.105,0.519,2.211,0.787,3.315
			c0.918,3.778,1.861,7.551,2.841,11.317c0.13,0.498,0.267,0.993,0.398,1.49c0.856,3.265,1.733,6.525,2.635,9.778
			c0.341,1.228,0.691,2.452,1.039,3.678c0.722,2.557,1.458,5.109,2.21,7.656c0.393,1.333,0.79,2.664,1.191,3.994
			c0.773,2.56,1.562,5.112,2.363,7.659c0.374,1.189,0.742,2.38,1.123,3.566c1.109,3.457,2.24,6.901,3.402,10.328
			c0,0.001,0.002,0.003,0.002,0.004c0.077,0.229,0.151,0.462,0.229,0.691c1.245,3.656,2.525,7.287,3.83,10.903
			c0.398,1.1,0.808,2.19,1.211,3.287c0.929,2.529,1.868,5.048,2.827,7.554c0.491,1.279,0.985,2.552,1.483,3.825
			c0.933,2.387,1.88,4.76,2.84,7.124c0.491,1.208,0.979,2.418,1.477,3.621c1.148,2.771,2.319,5.521,3.506,8.256
			c0.316,0.728,0.621,1.465,0.94,2.19c1.507,3.431,3.045,6.83,4.613,10.198c0.42,0.905,0.856,1.795,1.281,2.695
			c1.17,2.474,2.351,4.935,3.554,7.372c0.574,1.163,1.157,2.316,1.739,3.47c1.11,2.203,2.234,4.389,3.372,6.558
			c0.597,1.139,1.194,2.277,1.799,3.406c1.249,2.331,2.518,4.634,3.799,6.921c0.494,0.882,0.979,1.775,1.477,2.651
			c1.777,3.119,3.58,6.2,5.419,9.233c0.335,0.554,0.683,1.09,1.021,1.641c1.516,2.473,3.05,4.92,4.608,7.332
			c0.64,0.991,1.292,1.965,1.939,2.946c1.306,1.977,2.623,3.935,3.956,5.866c0.699,1.012,1.399,2.018,2.106,3.017
			c0.967,1.367,1.94,2.721,2.92,4.062c0.178,0.244,0.36,0.481,0.537,0.724c0.246,0.334,0.494,0.665,0.739,0.997
			c0.642,0.865,1.276,1.742,1.925,2.596c2.05,2.705,4.123,5.37,6.235,7.965c0.115,0.141,0.234,0.287,0.349,0.427
			c0.006,0.007,0.014,0.017,0.019,0.024c0.542,0.659,1.141,1.296,1.697,1.948c1.125,1.321,2.245,2.644,3.431,3.94
			c0.229,0.25,0.456,0.501,0.687,0.75c0.195,0.209,0.407,0.41,0.603,0.619c0.351,0.373,0.723,0.736,1.077,1.107
			c1.11,1.16,2.212,2.323,3.37,3.463c0.875,0.862,1.792,1.704,2.694,2.553c1.14,1.074,2.278,2.15,3.461,3.206
			c0.965,0.86,1.965,1.705,2.956,2.552c1.191,1.018,2.384,2.034,3.614,3.034c1.041,0.845,2.108,1.679,3.176,2.511
			c1.245,0.97,2.498,1.937,3.781,2.89c1.117,0.831,2.254,1.651,3.399,2.468c1.296,0.926,2.606,1.845,3.937,2.754
			c1.185,0.809,2.384,1.611,3.597,2.407c0.726,0.476,1.428,0.964,2.163,1.435c0.635,0.407,1.301,0.798,1.943,1.201
			c1.247,0.784,2.501,1.562,3.773,2.333c1.419,0.858,2.861,1.705,4.312,2.546c1.289,0.748,2.581,1.495,3.896,2.229
			c1.491,0.833,3.007,1.65,4.529,2.466c1.337,0.717,2.671,1.434,4.032,2.138c1.554,0.803,3.14,1.589,4.725,2.374
			c1.373,0.681,2.737,1.367,4.131,2.035c1.646,0.788,3.327,1.554,5.003,2.323c1.388,0.637,2.761,1.282,4.17,1.907
			c1.759,0.78,3.556,1.535,5.345,2.295c1.369,0.581,2.719,1.175,4.106,1.745c2.052,0.844,4.149,1.659,6.238,2.478
			c0.306,0.119,0.606,0.243,0.913,0.362c0.861,0.335,1.703,0.683,2.57,1.013c3.246,1.237,6.535,2.445,9.864,3.621
			c1.194,0.422,2.419,0.821,3.624,1.235c2.196,0.756,4.387,1.516,6.617,2.245c1.487,0.487,3.002,0.949,4.504,1.424
			c1.99,0.63,3.973,1.265,5.988,1.874c1.585,0.479,3.196,0.938,4.796,1.405c1.965,0.574,3.928,1.15,5.915,1.705
			c1.652,0.461,3.323,0.903,4.989,1.352c1.974,0.531,3.949,1.062,5.943,1.573c1.698,0.437,3.411,0.856,5.122,1.279
			c1.987,0.49,3.974,0.979,5.978,1.451c1.752,0.413,3.516,0.812,5.281,1.212c1.998,0.451,4.001,0.898,6.014,1.331
			c1.782,0.384,3.572,0.758,5.366,1.128c2.03,0.418,4.065,0.828,6.111,1.228c1.803,0.353,3.611,0.7,5.424,1.039
			c2.069,0.387,4.146,0.761,6.227,1.13c1.81,0.32,3.623,0.637,5.442,0.943c2.111,0.356,4.232,0.696,6.356,1.033
			c0.693,0.109,1.379,0.229,2.073,0.337c1.123,0.174,2.248,0.342,3.374,0.512c2.171,0.326,4.352,0.634,6.535,0.941
			c1.79,0.252,3.578,0.507,5.376,0.746c2.251,0.299,4.514,0.577,6.775,0.855c1.746,0.214,3.485,0.437,5.237,0.639
			c2.346,0.272,4.703,0.518,7.059,0.768c1.696,0.18,3.387,0.37,5.089,0.538c2.565,0.254,5.139,0.478,7.713,0.706
			c1.484,0.132,2.961,0.277,4.447,0.4c3.633,0.299,7.275,0.566,10.923,0.814c0.441,0.03,0.88,0.068,1.322,0.098
			c4.09,0.271,8.189,0.507,12.293,0.712c1.331,0.067,2.665,0.111,3.998,0.171c2.778,0.125,5.556,0.25,8.338,0.344
			c1.641,0.055,3.283,0.089,4.923,0.134c2.479,0.068,4.957,0.139,7.438,0.184c1.764,0.032,3.529,0.044,5.294,0.063
			c2.358,0.026,4.716,0.054,7.074,0.058c0.515,0.001,1.03,0.013,1.544,0.013c0.566,0,1.13-0.024,1.697-0.025
			c6.668-0.015,13.331-0.1,19.98-0.288c0.552-0.016,1.1-0.041,1.651-0.057c6.909-0.211,13.802-0.503,20.669-0.902
			c0.107-0.006,0.213-0.01,0.32-0.016c6.836-0.4,13.637-0.912,20.408-1.5c0.677-0.059,1.357-0.109,2.033-0.169
			c6.459-0.58,12.874-1.26,19.252-2.013c0.941-0.111,1.884-0.215,2.823-0.33c6.224-0.76,12.397-1.61,18.525-2.537
			c1.026-0.155,2.052-0.31,3.077-0.469c6.072-0.948,12.087-1.978,18.042-3.09c1.002-0.187,1.997-0.38,2.995-0.571
			c5.983-1.15,11.907-2.374,17.751-3.692c0.856-0.193,1.7-0.396,2.553-0.593c5.977-1.378,11.889-2.829,17.699-4.385
			c0.542-0.146,1.074-0.302,1.615-0.448c6.037-1.638,11.992-3.359,17.824-5.193c0.073-0.022,0.148-0.044,0.221-0.066
			c5.836-1.838,11.541-3.794,17.15-5.827c0.546-0.198,1.104-0.387,1.649-0.587c5.331-1.959,10.532-4.024,15.635-6.164
			c0.745-0.312,1.499-0.618,2.24-0.934c4.956-2.118,9.783-4.329,14.5-6.619c0.784-0.381,1.567-0.76,2.344-1.145
			c4.648-2.305,9.171-4.695,13.563-7.172c0.729-0.411,1.448-0.827,2.169-1.243c4.386-2.528,8.65-5.134,12.755-7.837
			c0.59-0.387,1.158-0.785,1.741-1.175c4.172-2.801,8.217-5.68,12.072-8.668c0.353-0.274,0.687-0.558,1.038-0.833
			c4.019-3.158,7.891-6.399,11.535-9.764c75.834-70.002,118.395-215.369,127.087-334.387
			C2361.521,718.648,2361.979,702.573,2361.853,687.196z"/>
		<path style="fill:#383B4E;" d="M1182.788,664.622c-0.016-0.366-0.039-0.718-0.057-1.082c-0.201-4.351-0.456-8.62-0.776-12.786
			c-0.046-0.594-0.104-1.166-0.152-1.756c-0.318-3.909-0.68-7.746-1.105-11.475c-0.022-0.199-0.036-0.415-0.059-0.614l-0.016,0.012
			c-0.851-7.334-1.865-14.378-3.127-20.931c-2.996-15.556-7.185-28.663-12.491-38.842c-0.024-0.047-0.05-0.093-0.074-0.14
			c-0.763-1.458-1.545-2.866-2.356-4.198c-0.179-0.298-0.367-0.573-0.548-0.864c-0.706-1.119-1.413-2.233-2.152-3.256
			c-0.953-1.332-1.932-2.591-2.943-3.758c-0.039-0.045-0.08-0.084-0.12-0.129c-0.884-1.002-1.761-2.026-2.689-2.898
			c-0.416-0.39-0.849-0.724-1.273-1.087c-0.013-0.011-0.025-0.021-0.037-0.031c-1.006-0.861-2.037-1.645-3.093-2.353
			c-0.193-0.131-0.384-0.267-0.579-0.392c-0.915-0.584-1.851-1.102-2.803-1.57c-0.269-0.134-0.531-0.289-0.804-0.413
			c-1.184-0.536-2.391-1.004-3.631-1.358c-1.13-0.323-2.405-0.645-3.814-0.966c-0.44-0.1-0.977-0.2-1.445-0.3
			c-1.031-0.221-2.049-0.443-3.207-0.663c-0.529-0.101-1.147-0.2-1.702-0.3c-1.212-0.219-2.413-0.438-3.748-0.656
			c-0.578-0.094-1.236-0.187-1.837-0.281c-1.434-0.224-2.868-0.45-4.428-0.672c-0.538-0.076-1.138-0.152-1.69-0.229
			c-1.713-0.237-3.444-0.474-5.296-0.709c-0.551-0.07-1.155-0.139-1.717-0.209c-1.966-0.243-3.963-0.487-6.075-0.728
			c-0.41-0.047-0.854-0.093-1.269-0.14c-2.322-0.262-4.699-0.522-7.186-0.78c-0.358-0.037-0.74-0.073-1.102-0.111
			c-2.603-0.267-5.272-0.533-8.046-0.798c-0.276-0.026-0.572-0.052-0.85-0.078c-2.914-0.275-5.907-0.548-8.999-0.818
			c-0.124-0.011-0.254-0.022-0.377-0.032c-3.234-0.282-6.557-0.562-9.975-0.839c-0.167-0.014-0.343-0.026-0.511-0.04
			c-3.427-0.277-6.94-0.551-10.545-0.822c-0.039-0.003-0.081-0.006-0.121-0.009c-4.267-0.32-8.688-0.635-13.19-0.947
			c-1.135-0.078-2.292-0.156-3.442-0.234c-3.635-0.247-7.338-0.491-11.113-0.732c-1.087-0.07-2.16-0.139-3.257-0.208
			c-9.669-0.607-19.769-1.194-30.244-1.761c-0.48-0.026-0.934-0.053-1.415-0.079l-0.004,0.004
			c-45.037-2.417-96.886-4.43-151.282-5.838c-179.076-4.637-385.048-2.728-462.324,12.775c0.001-0.001,0.001-0.001,0.001-0.003
			c-0.047,0.01-0.086,0.02-0.134,0.029c-2.455,0.494-4.775,1.002-6.964,1.524c-0.179,0.043-0.359,0.085-0.537,0.128
			c-1.973,0.477-3.827,0.967-5.57,1.467c-0.349,0.099-0.709,0.198-1.048,0.298c-1.483,0.441-2.854,0.895-4.155,1.355
			c-0.445,0.156-0.921,0.308-1.343,0.466c-1.17,0.441-2.212,0.893-3.214,1.35c-0.319,0.146-0.721,0.283-1.023,0.43
			c-0.03,0.015-0.061,0.029-0.09,0.044c-0.022,0.01-0.043,0.021-0.065,0.032c-0.054,0.027-0.107,0.053-0.16,0.08
			c-1.492,0.746-2.927,1.662-4.336,2.655c-0.382,0.269-0.758,0.556-1.135,0.843c-1.155,0.882-2.282,1.841-3.379,2.887
			c-0.241,0.229-0.491,0.433-0.729,0.671c-1.289,1.284-2.531,2.695-3.737,4.201c-0.299,0.372-0.585,0.773-0.878,1.158
			c-0.958,1.26-1.889,2.59-2.793,3.988c-0.283,0.437-0.57,0.861-0.847,1.31c-1.099,1.784-2.163,3.656-3.18,5.643
			c-0.176,0.343-0.34,0.714-0.513,1.064c-0.855,1.721-1.677,3.517-2.472,5.378c-0.26,0.608-0.519,1.218-0.773,1.841
			c-0.881,2.165-1.736,4.394-2.541,6.731c-0.034,0.101-0.073,0.194-0.108,0.296c-0.835,2.443-1.615,5.005-2.368,7.625
			c-0.203,0.708-0.399,1.429-0.596,2.149c-0.602,2.202-1.179,4.458-1.725,6.775c-0.131,0.555-0.27,1.09-0.399,1.651
			c-0.639,2.811-1.235,5.706-1.793,8.672c-0.137,0.725-0.262,1.47-0.393,2.205c-0.433,2.42-0.841,4.886-1.222,7.4
			c-0.124,0.819-0.254,1.629-0.372,2.457c-0.452,3.154-0.87,6.364-1.242,9.654c-0.061,0.541-0.11,1.1-0.168,1.644
			c-0.308,2.846-0.583,5.741-0.831,8.679c-0.082,0.97-0.162,1.94-0.237,2.92c-0.248,3.225-0.468,6.491-0.645,9.818
			c-0.016,0.289-0.037,0.569-0.053,0.859c-0.184,3.589-0.315,7.25-0.418,10.948c-0.029,1.02-0.049,2.049-0.072,3.077
			c-0.065,3.032-0.105,6.096-0.117,9.194c-0.002,0.596-0.021,1.17-0.022,1.767c0,0.251,0.007,0.51,0.008,0.762
			c0.004,3.504,0.037,7.042,0.108,10.621c0.014,0.725,0.043,1.464,0.059,2.192c0.069,2.908,0.158,5.835,0.271,8.788
			c0.047,1.216,0.103,2.44,0.157,3.664c0.114,2.596,0.246,5.206,0.396,7.832c0.068,1.206,0.134,2.408,0.21,3.621
			c0.2,3.198,0.424,6.416,0.673,9.653c0.045,0.583,0.08,1.158,0.128,1.743c0.303,3.811,0.646,7.65,1.018,11.509
			c0.101,1.06,0.217,2.128,0.324,3.191c0.291,2.88,0.598,5.768,0.927,8.669c0.142,1.25,0.287,2.502,0.436,3.756
			c0.349,2.944,0.719,5.899,1.108,8.862c0.135,1.036,0.263,2.066,0.404,3.104c0.54,3.998,1.111,8.008,1.722,12.033
			c0.052,0.345,0.111,0.692,0.165,1.038c0.561,3.662,1.155,7.333,1.774,11.01c0.193,1.14,0.393,2.281,0.591,3.422
			c0.518,2.993,1.056,5.988,1.613,8.987c0.217,1.168,0.433,2.335,0.656,3.504c0.661,3.472,1.348,6.944,2.061,10.419
			c0.118,0.575,0.228,1.148,0.347,1.723c0.854,4.109,1.744,8.217,2.67,12.323c0.178,0.791,0.367,1.582,0.548,2.372
			c0.752,3.289,1.527,6.574,2.325,9.856c0.274,1.125,0.551,2.247,0.831,3.371c0.778,3.135,1.58,6.265,2.401,9.39
			c0.254,0.965,0.5,1.93,0.758,2.893c2.172,8.122,4.484,16.196,6.941,24.199c0.288,0.938,0.584,1.87,0.875,2.805
			c0.969,3.104,1.957,6.195,2.968,9.275c0.062,0.188,0.119,0.379,0.181,0.567c0.279,0.845,0.56,1.688,0.842,2.531
			c1.12,3.355,2.266,6.693,3.438,10.013c0.201,0.57,0.394,1.143,0.596,1.711c1.413,3.965,2.863,7.901,4.349,11.808
			c0.194,0.511,0.397,1.014,0.592,1.524c1.262,3.289,2.552,6.556,3.867,9.799c0.405,0.999,0.815,1.991,1.225,2.985
			c1.19,2.885,2.4,5.747,3.632,8.589c0.396,0.914,0.787,1.833,1.187,2.743c3.243,7.371,6.629,14.59,10.156,21.629
			c0.408,0.815,0.826,1.617,1.239,2.427c1.37,2.694,2.761,5.362,4.174,8.001c0.514,0.96,1.029,1.917,1.549,2.87
			c1.472,2.699,2.967,5.364,4.485,7.998l0.188,0.168c7.323,12.697,15.15,24.65,23.493,35.644c-0.781-1.026-1.578-2.024-2.35-3.066
			c1.906,2.571,3.837,5.096,5.798,7.564c0.232,0.291,0.457,0.596,0.688,0.886c1,1.247,2.021,2.45,3.035,3.67
			c0.038,0.045,0.076,0.09,0.113,0.135c1.18,1.419,2.361,2.838,3.56,4.219c0.557,0.64,1.123,1.258,1.683,1.89
			c0.322,0.364,0.645,0.726,0.969,1.087c0.31,0.346,0.621,0.693,0.932,1.038c1.113,1.224,2.234,2.427,3.362,3.617
			c0.548,0.578,1.09,1.169,1.641,1.74c0.31,0.321,0.625,0.634,0.936,0.953c0.313,0.321,0.626,0.647,0.941,0.965
			c1.223,1.235,2.469,2.423,3.711,3.618c0.578,0.556,1.139,1.15,1.721,1.697c0.017,0.016,0.013,0.012,0.029,0.027
			c0.121,0.114,0.256,0.241,0.378,0.355c0.032,0.03,0.065,0.06,0.097,0.091c0.106,0.098,0.207,0.192,0.312,0.29
			c0.048,0.045,0.087,0.081,0.136,0.127c0.138,0.127,0.284,0.262,0.422,0.39c0.142,0.132,0.293,0.27,0.436,0.402
			c0.055,0.051,0.116,0.106,0.172,0.157c0.007,0.007-0.007-0.006,0.001,0.001c0.399,0.365,0.804,0.732,1.207,1.094l0.009,0.008
			c0.311,0.28,0.672,0.535,0.987,0.814c2.112,1.87,4.282,3.707,6.513,5.511c0.377,0.305,0.732,0.621,1.113,0.924
			c0.288,0.23,0.591,0.451,0.882,0.68c0.832,0.656,1.651,1.319,2.498,1.966c0.353,0.269,0.723,0.525,1.076,0.792
			c1.478,1.112,2.967,2.218,4.49,3.303c0.554,0.395,1.142,0.77,1.7,1.161c0.117,0.083,0.226,0.172,0.345,0.254
			c0.22,0.152,0.454,0.296,0.68,0.444c1.733,1.202,3.451,2.413,5.243,3.58c0.109,0.072,0.213,0.147,0.323,0.219
			c1.156,0.75,2.422,1.432,3.601,2.169c0.661,0.412,1.278,0.851,1.947,1.259c1.067,0.652,2.209,1.256,3.294,1.897
			c1.575,0.933,3.074,1.913,4.686,2.823c0.502,0.283,0.991,0.576,1.498,0.858c0.792,0.44,1.648,0.836,2.447,1.271
			c0.21,0.113,0.402,0.238,0.613,0.351l0.026-0.02c3.535,1.909,7.097,3.801,10.79,5.603c0.719,0.352,1.431,0.708,2.157,1.055
			c4.708,2.255,9.542,4.419,14.483,6.504c0.423,0.178,0.821,0.376,1.246,0.553c0.371,0.155,0.769,0.289,1.141,0.443
			c5.006,2.069,10.116,4.059,15.339,5.957c0.723,0.263,1.455,0.517,2.184,0.777c2.324,0.83,4.74,1.58,7.1,2.379l-0.07,0.053
			c1.494,0.504,3.039,0.959,4.548,1.447c1.652,0.54,3.248,1.128,4.921,1.649c0.443,0.138,0.895,0.267,1.34,0.405
			c0.647,0.2,1.322,0.37,1.97,0.566c2.714,0.823,5.483,1.59,8.241,2.371c0.164,0.046,0.334,0.085,0.497,0.131
			c5.381,1.52,10.833,2.962,16.367,4.325c0.106,0.026,0.207,0.057,0.312,0.083c1.828,0.448,3.64,0.911,5.483,1.342
			c1.405,0.329,2.768,0.704,4.181,1.023c0.29,0.066,0.575,0.135,0.865,0.201c2.116,0.474,4.298,0.87,6.433,1.322c0,0,0,0,0.001,0
			c0.716,0.152,1.414,0.324,2.132,0.473l0.036-0.027c3.45,0.717,6.869,1.471,10.365,2.131c0.523,0.099,1.042,0.202,1.566,0.299
			c5.975,1.112,12.011,2.139,18.102,3.085c0.369,0.057,0.737,0.112,1.106,0.169c0.535,0.081,1.069,0.164,1.605,0.245
			c6.553,0.99,13.161,1.886,19.824,2.686c0.361,0.044,0.721,0.083,1.081,0.126c6.315,0.747,12.687,1.381,19.08,1.96
			c1.686,0.152,3.374,0.292,5.064,0.433c5.31,0.442,10.641,0.831,15.991,1.158c1.218,0.075,2.43,0.166,3.649,0.234
			c6.511,0.366,13.044,0.647,19.591,0.843c1.183,0.035,2.369,0.052,3.552,0.081c5.628,0.142,11.265,0.224,16.905,0.241
			c0.797,0.003,1.592,0.034,2.389,0.034c0.867,0,1.735-0.017,2.602-0.02c2.338-0.008,4.677-0.027,7.015-0.056
			c2.179-0.027,4.357-0.068,6.535-0.114c2.573-0.053,5.147-0.104,7.717-0.183c1.512-0.047,3.022-0.114,4.532-0.17
			c6.211-0.228,12.413-0.523,18.597-0.9c0.721-0.044,1.444-0.079,2.165-0.125c3.365-0.215,6.723-0.462,10.076-0.721
			c0.982-0.076,1.962-0.15,2.943-0.229c3.501-0.284,6.996-0.588,10.48-0.919c0.423-0.04,0.844-0.084,1.266-0.125
			c6.602-0.64,13.169-1.371,19.694-2.183c3.949-0.49,7.847-1.069,11.762-1.622c2.538-0.359,5.097-0.68,7.618-1.066
			c4.5-0.685,8.938-1.458,13.382-2.227c1.872-0.325,3.765-0.617,5.627-0.957c4.726-0.859,9.384-1.802,14.036-2.755
			c1.516-0.312,3.052-0.599,4.56-0.921c4.847-1.032,9.618-2.142,14.371-3.278c1.245-0.298,2.506-0.578,3.744-0.882
			c4.929-1.212,9.777-2.5,14.59-3.823c0.988-0.272,1.987-0.532,2.969-0.809c4.968-1.396,9.847-2.866,14.675-4.382
			c0.768-0.242,1.544-0.476,2.31-0.721c4.97-1.588,9.844-3.247,14.651-4.963c0.56-0.2,1.123-0.396,1.68-0.598
			c4.945-1.787,9.786-3.645,14.539-5.567c0.366-0.148,0.731-0.295,1.094-0.444c4.893-1.996,9.672-4.063,14.344-6.202
			c0.177-0.081,0.355-0.163,0.531-0.245c33.731-15.51,61.548-34.692,80.151-57.541c64.719-79.494,100.349-212.077,108.022-320.122
			c0.85-11.97,1.215-23.463,1.369-34.709l0.115-0.088c0.076-5.176,0.08-10.264,0.012-15.257c-0.001-0.058-0.003-0.114-0.004-0.173
			C1183.13,674.069,1182.992,669.297,1182.788,664.622z"/>
	</g>
	<path style="fill:#434960;" d="M1653.658,1012.786c14.923,18.329,35.687,34.337,60.732,47.966l628.088-483.221
		c-4.205-8.039-9.053-14.499-14.604-18.956c-0.269-0.216-0.547-0.402-0.818-0.609c-0.669-0.499-1.333-1.008-2.021-1.452
		c-1.025-0.668-2.069-1.279-3.139-1.815c-1.191-0.596-2.531-1.176-4-1.745c-0.477-0.183-1.049-0.358-1.553-0.539
		c-1.058-0.379-2.101-0.76-3.281-1.128c-0.635-0.197-1.364-0.385-2.032-0.578c-1.175-0.34-2.33-0.681-3.611-1.011
		c-0.729-0.187-1.546-0.366-2.31-0.55c-1.345-0.324-2.676-0.65-4.124-0.964c-0.788-0.17-1.652-0.333-2.47-0.5
		c-1.541-0.315-3.078-0.631-4.723-0.936c-0.835-0.155-1.735-0.301-2.596-0.453c-1.743-0.307-3.489-0.612-5.337-0.908
		c-0.853-0.136-1.76-0.266-2.635-0.4c-1.967-0.301-3.951-0.6-6.028-0.889c-0.837-0.116-1.718-0.228-2.572-0.341
		c-2.211-0.297-4.449-0.59-6.776-0.873c-0.808-0.099-1.651-0.193-2.474-0.29c-2.476-0.292-4.989-0.579-7.585-0.857
		c-0.726-0.077-1.476-0.152-2.211-0.228c-2.755-0.287-5.556-0.569-8.438-0.841c-0.688-0.065-1.395-0.128-2.088-0.191
		c-3.015-0.278-6.079-0.549-9.222-0.811c-0.586-0.048-1.184-0.096-1.774-0.144c-3.311-0.271-6.68-0.534-10.124-0.787
		c-0.484-0.036-0.975-0.07-1.461-0.106c-3.609-0.262-7.282-0.515-11.03-0.758c-0.351-0.022-0.706-0.045-1.059-0.068
		c-3.896-0.25-7.861-0.492-11.898-0.723c-0.266-0.016-0.533-0.03-0.801-0.045c-4.169-0.237-8.407-0.464-12.717-0.681
		c-0.135-0.007-0.27-0.013-0.405-0.02c-4.41-0.221-8.889-0.433-13.436-0.633c-0.052-0.003-0.1-0.005-0.151-0.007l-0.001,0.001
		l-552.07,424.734C1629.373,979.539,1640.952,997.18,1653.658,1012.786z"/>
	<path style="fill:#434960;" d="M1824.735,1100.43l537.192-413.29c-0.077-10.185-0.449-20.009-1.114-29.403
		c-0.007-0.109-0.018-0.214-0.026-0.322c-0.326-4.553-0.721-9.005-1.184-13.345c-0.028-0.256-0.062-0.5-0.089-0.755
		c-0.455-4.162-0.968-8.226-1.551-12.175c-0.015-0.109-0.026-0.226-0.042-0.335l-0.01,0.008l-589.514,453.544
		C1786.157,1090.578,1805.035,1095.938,1824.735,1100.43z"/>
	<path style="fill:#434960;" d="M494.13,1033.25c12.874,11.885,28.144,22.468,45.342,31.788l627.862-483.046
		c-3.041-6.816-6.507-12.562-10.402-17.06c-0.039-0.045-0.08-0.084-0.12-0.129c-1.276-1.461-2.593-2.798-3.962-3.985
		c-0.013-0.011-0.025-0.021-0.037-0.031c-1.006-0.861-2.037-1.645-3.093-2.353c-0.193-0.131-0.384-0.267-0.579-0.392
		c-0.915-0.584-1.851-1.102-2.803-1.57c-0.269-0.134-0.531-0.289-0.804-0.413c-1.184-0.536-2.391-1.004-3.631-1.358
		c-1.13-0.323-2.405-0.645-3.814-0.966c-0.44-0.1-0.977-0.2-1.445-0.3c-1.031-0.221-2.049-0.443-3.207-0.663
		c-0.529-0.101-1.147-0.2-1.702-0.3c-1.212-0.219-2.413-0.438-3.748-0.656c-0.578-0.094-1.236-0.187-1.837-0.281
		c-1.434-0.224-2.868-0.45-4.428-0.672c-0.538-0.076-1.138-0.152-1.69-0.229c-1.713-0.237-3.444-0.474-5.296-0.709
		c-0.551-0.07-1.155-0.139-1.717-0.209c-1.966-0.243-3.963-0.487-6.075-0.728c-0.41-0.047-0.854-0.093-1.269-0.14
		c-2.322-0.262-4.699-0.522-7.186-0.78c-0.358-0.037-0.74-0.073-1.102-0.111c-2.603-0.267-5.272-0.533-8.046-0.798
		c-0.276-0.026-0.572-0.052-0.85-0.078c-2.914-0.275-5.907-0.548-8.999-0.818c-0.124-0.011-0.254-0.022-0.377-0.032
		c-3.234-0.282-6.557-0.562-9.975-0.839c-0.167-0.014-0.343-0.026-0.511-0.04c-3.427-0.277-6.94-0.551-10.545-0.822
		c-0.039-0.003-0.081-0.006-0.121-0.009c-4.267-0.32-8.688-0.635-13.19-0.947c-1.135-0.078-2.292-0.156-3.442-0.234
		c-3.635-0.247-7.338-0.491-11.113-0.732c-1.087-0.07-2.16-0.139-3.257-0.208c-9.669-0.607-19.77-1.194-30.244-1.761
		c-0.48-0.026-0.934-0.053-1.415-0.079l-0.004,0.004L442.25,966.052C457.337,992.277,474.636,1015.256,494.13,1033.25z"/>
	<path style="fill:#434960;" d="M651.033,1103.78l532.155-409.414c0.076-5.176,0.08-10.264,0.012-15.257
		c-0.001-0.058-0.003-0.114-0.004-0.173c-0.067-4.867-0.205-9.64-0.408-14.314c-0.016-0.366-0.039-0.718-0.057-1.082
		c-0.201-4.351-0.456-8.62-0.776-12.786c-0.046-0.594-0.104-1.166-0.152-1.756c-0.318-3.909-0.68-7.746-1.105-11.475
		c-0.022-0.199-0.036-0.415-0.059-0.614l-0.016,0.012l-586.8,451.456C611.88,1094.483,631.06,1099.611,651.033,1103.78z"/>
	<path style="fill:#262D3D;" d="M1720.871,1120.92l47.525-36.564c-19.518-6.837-37.674-14.716-54.006-23.604l-47.57,36.598
		c0,0-0.274-0.018,1.248,0.798c1.337,0.717,2.671,1.434,4.032,2.138c1.554,0.803,3.14,1.589,4.725,2.374
		c1.373,0.681,2.737,1.367,4.131,2.035c1.646,0.788,3.327,1.554,5.003,2.323c1.388,0.637,2.761,1.282,4.17,1.907
		c1.759,0.78,3.556,1.535,5.345,2.295c1.369,0.581,2.719,1.175,4.106,1.745c2.052,0.844,4.149,1.659,6.238,2.478
		c0.306,0.119,0.606,0.243,0.913,0.362c0.861,0.335,1.703,0.683,2.57,1.013c3.246,1.237,6.535,2.445,9.864,3.621
		C1720.359,1120.864,1720.871,1120.92,1720.871,1120.92z"/>
	<path style="fill:#262D3D;" d="M1983.577,1117.525c-54.497,0-109.223-5.782-158.842-17.095l-47.501,36.545l0.688,0.222
		c1.998,0.451,4.001,0.898,6.014,1.331c1.782,0.384,3.572,0.758,5.366,1.128c2.03,0.418,4.065,0.828,6.111,1.228
		c1.803,0.353,3.611,0.7,5.424,1.039c2.069,0.387,4.146,0.761,6.227,1.13c1.81,0.32,3.623,0.637,5.442,0.943
		c2.111,0.356,4.232,0.696,6.356,1.033c0.693,0.109,1.379,0.229,2.073,0.337c1.123,0.174,2.248,0.342,3.374,0.512
		c2.171,0.326,4.352,0.634,6.535,0.941c1.79,0.252,3.578,0.507,5.376,0.746c2.251,0.299,4.514,0.577,6.775,0.855
		c1.746,0.214,3.485,0.437,5.237,0.639c2.346,0.272,4.703,0.518,7.059,0.768c1.696,0.18,3.387,0.37,5.089,0.538
		c2.565,0.254,5.139,0.478,7.713,0.706c1.484,0.132,2.961,0.277,4.447,0.4c3.633,0.299,7.275,0.566,10.923,0.814
		c0.441,0.03,0.88,0.068,1.322,0.098c4.09,0.271,8.189,0.507,12.293,0.712c1.331,0.067,2.665,0.111,3.998,0.171
		c2.778,0.125,5.556,0.25,8.338,0.344c1.641,0.055,3.283,0.089,4.923,0.134c2.479,0.068,4.957,0.139,7.438,0.184
		c1.764,0.032,3.529,0.044,5.294,0.063c2.358,0.026,4.716,0.054,7.074,0.058c0.515,0.001,1.03,0.013,1.544,0.013
		c0.566,0,1.13-0.024,1.697-0.025c6.668-0.015,13.331-0.1,19.98-0.288c0.552-0.016,1.1-0.041,1.651-0.057
		c6.909-0.211,13.802-0.503,20.669-0.902c0.107-0.006,0.213-0.01,0.32-0.016c6.836-0.4,13.637-0.912,20.408-1.5
		c0.677-0.059,1.357-0.109,2.033-0.169c6.459-0.58,12.874-1.26,19.252-2.013c0.941-0.111,1.884-0.215,2.823-0.33
		c6.224-0.76,12.397-1.61,18.525-2.537c1.026-0.155,2.052-0.31,3.077-0.469c6.072-0.948,12.087-1.978,18.042-3.09
		c1.002-0.187,1.997-0.38,2.995-0.571c5.983-1.15,11.907-2.374,17.751-3.692c0.856-0.193,1.7-0.396,2.553-0.593
		c5.977-1.378,11.889-2.829,17.699-4.385c0.542-0.146,1.074-0.302,1.615-0.448c6.037-1.638,11.992-3.359,17.824-5.193
		c0.073-0.022,0.148-0.044,0.221-0.066c5.836-1.838,11.541-3.794,17.15-5.827c0.546-0.198,1.104-0.387,1.649-0.587
		c5.331-1.959,10.532-4.024,15.635-6.164c0.745-0.312,1.499-0.618,2.24-0.934c4.956-2.118,9.783-4.329,14.5-6.619
		c0.784-0.381,1.567-0.76,2.344-1.145c4.648-2.305,9.171-4.695,13.563-7.172c0.729-0.411,1.448-0.827,2.169-1.243
		c4.386-2.528,8.65-5.134,12.755-7.837c0.59-0.387,1.158-0.785,1.741-1.175c4.172-2.801,8.217-5.68,12.072-8.668
		c0.353-0.274,0.687-0.558,1.038-0.833c4.019-3.158,7.891-6.399,11.535-9.764c2.549-2.351,4.987-4.943,7.46-7.464
		C2175.082,1099.556,2079.66,1117.525,1983.577,1117.525z"/>
	<path style="fill:#262D3D;" d="M1534.449,912.873c1.245,3.656,2.525,7.287,3.83,10.903c0.398,1.1,0.808,2.19,1.211,3.287
		c0.929,2.529,1.868,5.048,2.827,7.554c0.491,1.279,0.985,2.552,1.483,3.825c0.933,2.387,1.88,4.76,2.84,7.124
		c0.491,1.208,0.979,2.418,1.477,3.621c1.148,2.771,2.319,5.521,3.506,8.256c0.316,0.728,0.621,1.465,0.94,2.19
		c1.507,3.431,3.045,6.83,4.613,10.198c0.42,0.905,0.856,1.795,1.281,2.695c1.17,2.474,2.351,4.935,3.554,7.372
		c0.574,1.163,1.157,2.316,1.739,3.47c1.11,2.203,2.234,4.389,3.372,6.558c0.597,1.139,1.194,2.277,1.799,3.406
		c1.249,2.331,2.189,3.865,2.189,3.865l47.792-36.769c-71.854-131.121-91.314-330.888-61.133-409.595
		c0.001-0.001,0.001-0.002,0.001-0.003c-0.056,0.008-0.103,0.016-0.159,0.024c-1.402,0.2-2.685,0.401-3.983,0.602
		c-0.68,0.106-1.408,0.211-2.059,0.316c-1.141,0.185-2.172,0.371-3.225,0.557c-0.721,0.128-1.483,0.254-2.162,0.382
		c-0.864,0.162-1.625,0.325-2.418,0.488c-0.747,0.154-1.526,0.307-2.212,0.46c-0.656,0.147-1.22,0.296-1.82,0.444
		c-0.554,0.137-1.177,0.272-1.68,0.41c-0.005,0.001-0.01,0.003-0.016,0.004c-0.068,0.019-0.136,0.038-0.204,0.057
		c-0.009,0.002-0.018,0.005-0.027,0.007c-0.065,0.018-0.129,0.036-0.194,0.054c-0.01,0.003-0.021,0.006-0.03,0.009
		c-0.066,0.018-0.132,0.037-0.196,0.055c-1.529,0.437-3.001,1.064-4.447,1.776c-0.344,0.17-0.688,0.342-1.028,0.528
		c-1.41,0.768-2.79,1.628-4.116,2.653c-0.123,0.094-0.238,0.211-0.36,0.308c-1.229,0.977-2.415,2.083-3.573,3.275
		c-0.292,0.3-0.584,0.596-0.871,0.909c-1.216,1.329-2.399,2.753-3.534,4.316c-0.173,0.238-0.335,0.502-0.506,0.744
		c-1.004,1.429-1.973,2.956-2.91,4.565c-0.234,0.4-0.472,0.791-0.701,1.202c-1.03,1.843-2.021,3.785-2.968,5.841
		c-0.179,0.387-0.347,0.799-0.523,1.194c-0.821,1.846-1.61,3.773-2.368,5.777c-0.174,0.461-0.355,0.908-0.527,1.378
		c-0.842,2.313-1.644,4.727-2.405,7.233c-0.164,0.536-0.317,1.091-0.476,1.636c-0.655,2.245-1.28,4.558-1.872,6.944
		c-0.12,0.483-0.247,0.949-0.364,1.437c-0.657,2.74-1.269,5.578-1.843,8.49c-0.131,0.665-0.255,1.345-0.382,2.019
		c-0.507,2.688-0.984,5.435-1.422,8.257c-0.062,0.398-0.13,0.78-0.191,1.18c-0.474,3.136-0.895,6.366-1.285,9.656
		c-0.093,0.781-0.18,1.569-0.267,2.358c-0.354,3.175-0.678,6.399-0.955,9.704c-0.019,0.224-0.042,0.441-0.061,0.666
		c-0.287,3.49-0.516,7.07-0.717,10.695c-0.047,0.864-0.093,1.731-0.136,2.603c-0.181,3.667-0.334,7.377-0.431,11.168
		c-0.004,0.146-0.004,0.295-0.007,0.44c-0.091,3.681-0.128,7.434-0.137,11.224c-0.001,0.494-0.017,0.968-0.017,1.464
		c0,0.519,0.014,1.056,0.016,1.577c0.007,2.299,0.033,4.621,0.07,6.956c0.017,1.017,0.025,2.025,0.047,3.049
		c0.07,3.339,0.164,6.705,0.294,10.108c0.01,0.296,0.029,0.598,0.04,0.895c0.124,3.123,0.273,6.272,0.446,9.446
		c0.06,1.105,0.132,2.221,0.198,3.332c0.144,2.417,0.3,4.843,0.473,7.285c0.088,1.245,0.18,2.491,0.275,3.742
		c0.185,2.428,0.387,4.869,0.601,7.32c0.103,1.183,0.2,2.361,0.31,3.549c0.289,3.134,0.601,6.285,0.935,9.451
		c0.048,0.461,0.089,0.916,0.139,1.377c0.391,3.63,0.815,7.283,1.266,10.95c0.132,1.079,0.278,2.164,0.415,3.246
		c0.335,2.631,0.68,5.267,1.045,7.913c0.179,1.297,0.364,2.597,0.551,3.897c0.359,2.509,0.734,5.023,1.12,7.544
		c0.199,1.291,0.395,2.58,0.599,3.873c0.454,2.863,0.931,5.733,1.421,8.607c0.15,0.886,0.292,1.769,0.446,2.656
		c0.655,3.759,1.339,7.526,2.052,11.298c0.165,0.878,0.344,1.756,0.515,2.635c0.56,2.903,1.134,5.807,1.729,8.714
		c0.265,1.293,0.538,2.584,0.81,3.876c0.538,2.552,1.087,5.104,1.651,7.657c0.297,1.342,0.594,2.683,0.898,4.024
		c0.611,2.695,1.242,5.387,1.883,8.08c0.264,1.105,0.519,2.211,0.787,3.315c0.918,3.778,1.861,7.551,2.841,11.317
		c0.13,0.498,0.267,0.993,0.398,1.49c0.856,3.265,1.733,6.525,2.635,9.778c0.341,1.228,0.691,2.452,1.039,3.678
		c0.722,2.557,1.458,5.109,2.21,7.656c0.393,1.333,0.79,2.664,1.191,3.994c0.773,2.56,1.562,5.112,2.363,7.659
		c0.374,1.189,0.742,2.38,1.123,3.566c1.109,3.458,2.241,6.903,3.404,10.332C1534.297,912.412,1534.371,912.645,1534.449,912.873z"
		/>
	<path style="fill:#2D374B;" d="M1653.658,1012.786c-12.706-15.606-24.285-33.248-34.757-52.357l-47.792,36.769
		c7.592,13.818,15.747,26.893,24.487,38.983c0.195,0.267,0.376,0.555,0.569,0.821c0.178,0.244,0.36,0.481,0.537,0.724
		c0.088,0.12,0.182,0.231,0.271,0.35c2.818,3.837,5.685,7.592,8.629,11.209c0.115,0.141,0.234,0.287,0.349,0.427
		c0.006,0.007,0.014,0.017,0.019,0.024c1.848,2.249,3.789,4.461,5.815,6.639c0.195,0.209,0.407,0.41,0.603,0.619
		c14.299,15.196,32.829,28.635,54.432,40.356l47.57-36.598C1689.344,1047.124,1668.58,1031.115,1653.658,1012.786z"/>
	<path style="fill:#2D374B;" d="M1777.234,1136.975l47.501-36.545c-19.7-4.491-38.578-9.852-56.338-16.074h-0.001l-47.525,36.564
		C1738.652,1127.128,1757.52,1132.494,1777.234,1136.975z"/>
	<path style="fill:#262D3D;" d="M357.229,920.558c0.201,0.57,0.394,1.143,0.596,1.711c1.413,3.965,2.863,7.901,4.349,11.808
		c0.194,0.511,0.397,1.014,0.592,1.524c1.262,3.289,2.552,6.556,3.867,9.799c0.405,0.999,0.815,1.991,1.225,2.985
		c1.19,2.885,2.4,5.747,3.632,8.589c0.396,0.914,0.787,1.833,1.187,2.743c3.243,7.371,6.629,14.59,10.156,21.629
		c0.408,0.815,0.826,1.617,1.239,2.427c1.37,2.694,2.761,5.362,4.174,8.001c0.514,0.96,1.029,1.917,1.549,2.87
		c1.472,2.699,2.967,5.364,4.485,7.998l0.188,0.168l47.782-36.761c-74.57-129.622-95.171-338.67-60.557-418.553
		c0.001-0.001,0.001-0.001,0.001-0.003c-0.047,0.01-0.086,0.02-0.134,0.029c-2.455,0.494-4.775,1.002-6.964,1.524
		c-0.179,0.043-0.359,0.085-0.537,0.128c-1.973,0.477-3.827,0.967-5.57,1.467c-0.349,0.099-0.709,0.198-1.048,0.298
		c-1.483,0.441-2.854,0.895-4.155,1.355c-0.445,0.156-0.921,0.308-1.343,0.466c-1.17,0.441-2.212,0.893-3.214,1.35
		c-0.319,0.146-0.721,0.283-1.023,0.43c-0.03,0.015-0.061,0.029-0.09,0.044c-0.022,0.01-0.043,0.021-0.065,0.032
		c-0.054,0.027-0.107,0.053-0.16,0.08c-1.492,0.746-2.927,1.662-4.336,2.655c-0.382,0.269-0.758,0.556-1.135,0.843
		c-1.155,0.882-2.282,1.841-3.379,2.887c-0.241,0.229-0.491,0.433-0.729,0.671c-1.289,1.284-2.531,2.695-3.737,4.201
		c-0.299,0.372-0.585,0.773-0.878,1.158c-0.958,1.26-1.889,2.59-2.793,3.988c-0.283,0.437-0.57,0.861-0.847,1.31
		c-1.099,1.784-2.163,3.656-3.18,5.643c-0.176,0.343-0.34,0.714-0.513,1.064c-0.855,1.721-1.677,3.517-2.472,5.378
		c-0.26,0.608-0.519,1.218-0.773,1.841c-0.881,2.165-1.736,4.394-2.541,6.731c-0.034,0.101-0.073,0.194-0.108,0.296
		c-0.835,2.443-1.615,5.005-2.368,7.625c-0.203,0.708-0.399,1.429-0.596,2.149c-0.602,2.202-1.179,4.458-1.725,6.775
		c-0.131,0.555-0.27,1.09-0.399,1.651c-0.639,2.811-1.235,5.706-1.793,8.672c-0.137,0.725-0.262,1.47-0.393,2.205
		c-0.433,2.42-0.841,4.886-1.222,7.4c-0.124,0.819-0.254,1.629-0.372,2.457c-0.452,3.154-0.87,6.364-1.242,9.654
		c-0.061,0.541-0.11,1.1-0.168,1.644c-0.308,2.846-0.583,5.741-0.831,8.679c-0.082,0.97-0.162,1.94-0.237,2.92
		c-0.248,3.225-0.468,6.491-0.645,9.818c-0.016,0.289-0.037,0.569-0.053,0.859c-0.184,3.589-0.315,7.25-0.418,10.948
		c-0.029,1.02-0.049,2.049-0.072,3.077c-0.065,3.032-0.105,6.096-0.117,9.194c-0.002,0.596-0.021,1.17-0.022,1.767
		c0,0.251,0.007,0.51,0.008,0.762c0.004,3.504,0.037,7.042,0.108,10.621c0.014,0.725,0.043,1.464,0.059,2.192
		c0.069,2.908,0.158,5.835,0.271,8.788c0.047,1.216,0.103,2.44,0.157,3.664c0.114,2.596,0.246,5.206,0.396,7.832
		c0.068,1.206,0.134,2.408,0.21,3.621c0.2,3.198,0.424,6.416,0.673,9.653c0.045,0.583,0.08,1.158,0.128,1.743
		c0.303,3.811,0.646,7.65,1.018,11.509c0.101,1.06,0.217,2.128,0.324,3.191c0.291,2.88,0.598,5.768,0.927,8.669
		c0.142,1.25,0.287,2.502,0.436,3.756c0.349,2.944,0.719,5.899,1.108,8.862c0.135,1.036,0.263,2.066,0.404,3.104
		c0.54,3.998,1.111,8.008,1.722,12.033c0.052,0.345,0.111,0.692,0.165,1.038c0.561,3.662,1.155,7.333,1.774,11.01
		c0.193,1.14,0.393,2.281,0.591,3.422c0.518,2.993,1.056,5.988,1.613,8.987c0.217,1.168,0.433,2.335,0.656,3.504
		c0.661,3.472,1.348,6.944,2.061,10.419c0.118,0.575,0.228,1.148,0.347,1.723c0.854,4.109,1.744,8.217,2.67,12.323
		c0.178,0.791,0.367,1.582,0.548,2.372c0.752,3.289,1.527,6.574,2.325,9.856c0.274,1.125,0.551,2.247,0.831,3.371
		c0.778,3.135,1.58,6.265,2.401,9.39c0.254,0.965,0.5,1.93,0.758,2.893c2.172,8.122,4.484,16.196,6.941,24.199
		c0.288,0.938,0.584,1.87,0.875,2.805c0.969,3.104,1.957,6.195,2.968,9.275c0.062,0.188,0.119,0.379,0.181,0.567
		c0.279,0.845,0.56,1.688,0.842,2.531C354.912,913.901,356.057,917.239,357.229,920.558z"/>
	<path style="fill:#262D3D;" d="M791.471,1117.528c-48.217,0-96.256-4.525-140.438-13.748l-47.476,36.526
		c3.45,0.717,6.869,1.471,10.365,2.131c0.523,0.099,1.042,0.202,1.566,0.299c6.336,1.179,12.742,2.262,19.208,3.254
		c0.535,0.081,1.069,0.164,1.605,0.245c6.553,0.99,13.161,1.886,19.824,2.686c0.361,0.044,0.721,0.083,1.081,0.126
		c6.315,0.747,12.687,1.381,19.08,1.96c1.686,0.152,3.374,0.292,5.064,0.433c5.31,0.442,10.641,0.831,15.991,1.158
		c1.218,0.075,2.43,0.166,3.649,0.234c6.511,0.366,13.044,0.647,19.591,0.843c1.183,0.035,2.369,0.052,3.552,0.081
		c5.628,0.142,11.265,0.224,16.905,0.241c0.797,0.003,1.592,0.034,2.389,0.034c0.867,0,1.735-0.017,2.602-0.02
		c2.338-0.008,4.677-0.027,7.015-0.056c2.179-0.027,4.357-0.068,6.535-0.114c2.573-0.053,5.147-0.104,7.717-0.183
		c1.512-0.047,3.022-0.114,4.532-0.17c6.211-0.228,12.413-0.523,18.597-0.9c0.721-0.044,1.444-0.079,2.165-0.125
		c3.365-0.215,6.723-0.462,10.076-0.721c0.982-0.076,1.962-0.15,2.943-0.229c3.501-0.284,6.996-0.588,10.48-0.919
		c0.423-0.04,0.844-0.084,1.266-0.125c104.04-10.097,199.819-41.541,248.487-92.546
		C997.109,1097.11,893.889,1117.528,791.471,1117.528z"/>
	<path style="fill:#262D3D;" d="M593.824,1088.378c-19.584-6.622-37.857-14.401-54.351-23.339l-47.612,36.63
		c3.535,1.909,7.097,3.801,10.79,5.603c0.719,0.352,1.431,0.708,2.157,1.055c4.708,2.255,9.542,4.419,14.483,6.504
		c0.423,0.178,0.821,0.376,1.246,0.553c0.371,0.155,0.769,0.289,1.141,0.443c5.006,2.069,10.116,4.059,15.339,5.957
		c0.723,0.263,1.455,0.517,2.184,0.777c2.324,0.829,4.737,1.583,7.1,2.379L593.824,1088.378z"/>
	<path style="fill:#2D374B;" d="M539.473,1065.039c-17.198-9.321-32.468-19.904-45.342-31.788
		c-19.494-17.995-36.793-40.973-51.88-67.199l-47.782,36.761c7.323,12.697,15.15,24.65,23.493,35.644
		c0.057,0.073,0.113,0.146,0.168,0.219c1.927,2.533,3.885,5.007,5.866,7.436c0.266,0.325,0.532,0.65,0.798,0.974
		c0.247,0.3,0.504,0.581,0.752,0.879c1.631,1.962,3.275,3.902,4.943,5.79c0.322,0.364,0.645,0.726,0.969,1.087
		c0.739,0.826,1.498,1.608,2.245,2.419c1.227,1.332,2.444,2.684,3.69,3.976c0.31,0.321,0.625,0.634,0.936,0.953
		c1.073,1.098,2.17,2.143,3.257,3.21c0.466,0.456,0.926,0.923,1.395,1.373c0.578,0.556,1.139,1.15,1.721,1.697
		c0.017,0.016,0.013,0.012,0.029,0.027c0.121,0.114,0.256,0.241,0.378,0.355c0.032,0.03,0.065,0.06,0.097,0.091
		c0.106,0.098,0.207,0.192,0.312,0.29c0.048,0.045,0.087,0.081,0.136,0.127c0.138,0.127,0.284,0.262,0.422,0.39
		c0.203,0.187,0.404,0.373,0.609,0.559c0.007,0.007-0.007-0.006,0.001,0.001c1.276,1.166,2.68,2.261,4.002,3.401
		c0.516,0.444,1.038,0.885,1.561,1.326c1.429,1.204,2.786,2.449,4.266,3.625c0.288,0.23,0.591,0.451,0.882,0.68
		c0.358,0.282,0.751,0.543,1.112,0.823c1.787,1.383,3.643,2.724,5.498,4.066c1.181,0.854,2.29,1.75,3.498,2.588
		c0.22,0.152,0.454,0.296,0.68,0.444c0.701,0.461,1.416,0.915,2.11,1.381c2.339,1.573,4.711,3.125,7.146,4.64
		c0.632,0.394,1.219,0.816,1.858,1.206c1.067,0.652,2.209,1.256,3.294,1.897c2.838,1.677,5.681,3.349,8.631,4.952
		c0.21,0.113,0.402,0.238,0.613,0.351l0.026-0.02L539.473,1065.039z"/>
	<path style="fill:#2D374B;" d="M546.3,1124.941L546.3,1124.941l-0.07,0.053c1.494,0.504,3.039,0.959,4.548,1.447
		c0.006,0.002,0.013,0.004,0.02,0.007c2.724,0.883,5.44,1.774,8.211,2.614c2.714,0.823,5.483,1.59,8.241,2.371
		c0.164,0.046,0.334,0.085,0.497,0.131c5.381,1.52,10.833,2.962,16.367,4.325c0.106,0.026,0.207,0.057,0.312,0.083
		c1.828,0.448,3.64,0.911,5.483,1.342c3.792,0.887,7.625,1.73,11.479,2.547c0,0,0,0,0.001,0c0.716,0.152,1.414,0.324,2.132,0.473
		l0.036-0.027l47.476-36.526c-19.973-4.169-39.153-9.297-57.209-15.402L546.3,1124.941z"/>
</g>
</svg>
